  0
SECTION
  2
HEADER
  9
$ACADVER
  1
AC1006
  0
ENDSEC
  0
SECTION
  2
TABLES
  0
TABLE
  2
LAYER
 70
5
  0
LAYER
  2
Crease
 62
0
  0
LAYER
  2
Outline
 62
3
  0
LAYER
  2
Mountain
 62
1
  0
LAYER
  2
Valley
 62
5
  0
LAYER
  2
Triangulation
 62
7
  0
ENDTAB
  0
ENDSEC
  0
SECTION
  2
ENTITIES
  0
LINE
  8
Valley
 62
5
 10
-12.92892988988258551331
 20
-35.3553411593897237708
 11
-9.999998285283254517708
 21
-28.2842733022346379812
  0
LINE
  8
Valley
 62
5
 10
21.59600752237044929416
 20
-49.10583751961095799743
 11
24.52484490780226167317
 21
-42.03473125286484446406
  0
LINE
  8
Valley
 62
5
 10
7.071069197948032680756
 20
-7.071067774481999634872
 11
10.00000033960145984224
 21
0
  0
LINE
  8
Valley
 62
5
 10
41.59508913060970769493
 20
-20.82069492933105436805
 11
44.52401810061249420869
 21
-13.74962591252046983925
  0
LINE
  8
Mountain
 62
1
 10
-22.92892980757054388619
 20
-35.35534171302347772325
 11
-12.92892988988258551331
 21
-35.3553411593897237708
  0
LINE
  8
Valley
 62
5
 10
-12.92892988988258551331
 20
-35.3553411593897237708
 11
-19.99999820542115713806
 21
-28.28427382352404961807
  0
LINE
  8
Mountain
 62
1
 10
11.59600902535273903027
 20
-49.10597447507088020302
 11
21.59600752237044929416
 21
-49.10583751961095799743
  0
LINE
  8
Valley
 62
5
 10
21.59600752237044929416
 20
-49.10583751961095799743
 11
14.524845009406583074
 21
-42.03486698356859108117
  0
LINE
  8
Mountain
 62
1
 10
-2.928930778096592746351
 20
-7.071068747182866154333
 11
7.071069197948032680756
 21
-7.071067774481999634872
  0
LINE
  8
Valley
 62
5
 10
7.071069197948032680756
 20
-7.071067774481999634872
 11
0
 21
0
  0
LINE
  8
Mountain
 62
1
 10
31.59508929048211101076
 20
-20.8206995347713146316
 11
41.59508913060970769493
 21
-20.82069492933105436805
  0
LINE
  8
Valley
 62
5
 10
41.59508913060970769493
 20
-20.82069492933105436805
 11
34.52401807582664616803
 21
-13.74963051203268271649
  0
LINE
  8
Valley
 62
5
 10
-19.99999723959237130089
 20
-42.42640946871827622999
 11
-12.92892988988258551331
 21
-35.3553411593897237708
  0
LINE
  8
Valley
 62
5
 10
14.52503814378268920393
 20
-56.17700253725382708581
 11
21.59600752237044929416
 21
-49.10583751961095799743
  0
LINE
  8
Valley
 62
5
 10
1.147080324059857048269e-06
 20
-14.14213716670746734394
 11
7.071069197948032680756
 21
-7.071067774481999634872
  0
LINE
  8
Valley
 62
5
 10
34.52465300098347000812
 20
-27.89246079381178589074
 11
41.59562525922913778231
 21
-20.82129619520670615884
  0
LINE
  8
Valley
 62
5
 10
-19.99999723959237130089
 20
-42.42640946871827622999
 11
-29.99999731756939880256
 21
-42.42640979757827324192
  0
LINE
  8
Mountain
 62
1
 10
-22.92892936667946202078
 20
-49.49747742800772698502
 11
-19.99999723959237130089
 21
-42.42640946871827622999
  0
LINE
  8
Valley
 62
5
 10
14.52496219720724468516
 20
-56.17697025022989976151
 11
4.5249621671400843681
 21
-56.17710888685763137573
  0
LINE
  8
Mountain
 62
1
 10
11.59612810800066284855
 20
-63.24807872210444514849
 11
14.52496219720724468516
 21
-56.17697025022989976151
  0
LINE
  8
Valley
 62
5
 10
1.147080324059857048269e-06
 20
-14.14213716670746734394
 11
-9.999998858375215959882
 21
-14.14213745949739831076
  0
LINE
  8
Mountain
 62
1
 10
-2.928930849230353850032
 20
-21.21320506977010467153
 11
1.147080324059857048269e-06
 21
-14.14213716670746734394
  0
LINE
  8
Valley
 62
5
 10
34.52465300098347000812
 20
-27.89246079381178589074
 11
24.5246528808021793111
 21
-27.89259621672302102979
  0
LINE
  8
Mountain
 62
1
 10
31.59581634253655124667
 20
-34.96356827041204695661
 11
34.52465300098347000812
 21
-27.89246079381178589074
  0
LINE
  8
Valley
 62
5
 10
-32.92892944060663751316
 20
-49.49747774351206430765
 11
-22.92892936667946202078
 21
-49.49747742800772698502
  0
LINE
  8
Mountain
 62
1
 10
-22.92892936667946202078
 20
-49.49747742800772698502
 11
-29.99999731756939880256
 21
-42.42640979757827324192
  0
LINE
  8
Valley
 62
5
 10
1.596128056415058615869
 20
-63.24821756468279687624
 11
11.59612810800066284855
 21
-63.24807872210444514849
  0
LINE
  8
Mountain
 62
1
 10
11.59612810800066284855
 20
-63.24807872210444514849
 11
4.5249621671400843681
 21
-56.17710888685763137573
  0
LINE
  8
Valley
 62
5
 10
-12.92893083401679277245
 20
-21.21320539215522060772
 11
-2.928930849230353850032
 21
-21.21320506977010467153
  0
LINE
  8
Mountain
 62
1
 10
-2.928930849230353850032
 20
-21.21320506977010467153
 11
-9.999998858375215959882
 21
-14.14213745949739831076
  0
LINE
  8
Valley
 62
5
 10
21.59581621951324592601
 20
-34.96370365936732582668
 11
31.59581634253655124667
 21
-34.96356827041204695661
  0
LINE
  8
Mountain
 62
1
 10
31.59581634253655124667
 20
-34.96356827041204695661
 11
24.5246528808021793111
 21
-27.89259621672302102979
  0
LINE
  8
Mountain
 62
1
 10
-29.99999686067386761579
 20
-56.56854549425510469973
 11
-22.92892936667946202078
 21
-49.49747742800772698502
  0
LINE
  8
Mountain
 62
1
 10
4.525159046908343363214
 20
-70.31924447817333145849
 11
11.59612810800066284855
 21
-63.24807872210444514849
  0
LINE
  8
Mountain
 62
1
 10
-19.99999820542115713806
 20
-28.28427382352404961807
 11
-9.999998285283254517708
 21
-28.2842733022346379812
  0
LINE
  8
Valley
 62
5
 10
21.59581621951324592601
 20
-34.96370365936732582668
 11
14.524845009406583074
 21
-42.03486698356859108117
  0
LINE
  8
Mountain
 62
1
 10
14.524845009406583074
 20
-42.03486698356859108117
 11
24.52484490780226167317
 21
-42.03473125286484446406
  0
LINE
  8
Mountain
 62
1
 10
-2.737627969000110628173
 20
-35.15956655731724822544
 11
-9.999728279304315847753
 21
-28.28483740925686262813
  0
LINE
  8
Mountain
 62
1
 10
-5.66655477496481996269
 20
-42.23063637416308324646
 11
-2.737627969000110628173
 21
-35.15956655731724822544
  0
LINE
  8
Mountain
 62
1
 10
31.78679579536839483467
 20
-48.90951036993133271835
 11
24.52477052362104004146
 21
-42.03470109547864552724
  0
LINE
  8
Mountain
 62
1
 10
28.85779204075877757418
 20
-55.98054843715673456472
 11
31.78679579536839483467
 21
-48.90951036993133271835
  0
LINE
  8
Mountain
 62
1
 10
14.33299041525079076109
 20
-13.94597236825463859589
 11
17.26191874227879452519
 21
-6.874903256240932236665
  0
LINE
  8
Mountain
 62
1
 10
48.85718659360606608288
 20
-27.69542595554140973491
 11
51.78611574255700134017
 21
-20.624357108992843024
  0
LINE
  8
Valley
 62
5
 10
-5.66655477496481996269
 20
-42.23063637416308324646
 11
-12.92865493695398626528
 21
-35.35590731550314558262
  0
LINE
  8
Valley
 62
5
 10
-12.73744759366807954848
 20
-49.30187916849916973661
 11
-5.66655477496481996269
 21
-42.23063637416308324646
  0
LINE
  8
Valley
 62
5
 10
28.85779204075877757418
 20
-55.98054843715673456472
 11
21.59576623680197826616
 21
-49.10573822971254998038
  0
LINE
  8
Valley
 62
5
 10
21.78681877374879505282
 20
-63.05171119619375730281
 11
28.85779204075877757418
 21
-55.98054843715673456472
  0
LINE
  8
Valley
 62
5
 10
14.33299041525079076109
 20
-13.94597236825463859589
 11
7.070891271570996394757
 21
-7.071242102405156160216
  0
LINE
  8
Valley
 62
5
 10
7.262097951233794645987
 20
-21.01721420223683978179
 11
14.33299041525079076109
 21
-13.94597236825463859589
  0
LINE
  8
Valley
 62
5
 10
48.85764814517369813984
 20
-27.69610599976237352848
 11
41.59562525922913778231
 21
-20.82129619520670615884
  0
LINE
  8
Valley
 62
5
 10
41.78667588628303519727
 20
-34.76727056821169981049
 11
48.85764814517369813984
 21
-27.69610599976237352848
  0
LINE
  8
Valley
 62
5
 10
-12.73744759366807954848
 20
-49.30187916849916973661
 11
-19.99954772833484639705
 21
-42.42715017882784422909
  0
LINE
  8
Valley
 62
5
 10
-15.66628073485206407156
 20
-56.37298784439458643192
 11
-12.73744759366807954848
 21
-49.30187916849916973661
  0
LINE
  8
Valley
 62
5
 10
21.78706150812318043108
 20
-63.05170014462377281461
 11
14.52496219720724468516
 21
-56.17697025022989976151
  0
LINE
  8
Valley
 62
5
 10
18.8582281708356696015
 20
-70.12280897699956483393
 11
21.78706150812318043108
 21
-63.05170014462377281461
  0
LINE
  8
Valley
 62
5
 10
7.262097951233794645987
 20
-21.01721420223683978179
 11
-2.686494513959303276351e-06
 21
-14.14248558311365933093
  0
LINE
  8
Valley
 62
5
 10
4.333265562076952903681
 20
-28.08832337494385811283
 11
7.262097951233794645987
 21
-21.01721420223683978179
  0
LINE
  8
Valley
 62
5
 10
41.78667588628303519727
 20
-34.76727056821169981049
 11
34.52465300098347000812
 21
-27.89246079381178589074
  0
LINE
  8
Valley
 62
5
 10
38.85776430329867991986
 20
-41.83834696653232754215
 11
41.78667588628303519727
 21
-34.76727056821169981049
  0
LINE
  8
Mountain
 62
1
 10
-15.66699937129440201034
 20
-56.37238563233353971782
 11
-22.92892936667946202078
 21
-49.49747742800772698502
  0
LINE
  8
Mountain
 62
1
 10
-22.73806637068096847543
 20
-63.44345452977738375466
 11
-15.66699937129440201034
 21
-56.37238563233353971782
  0
LINE
  8
Mountain
 62
1
 10
18.8582281708356696015
 20
-70.12280897699956483393
 11
11.59612810800066284855
 21
-63.24807872210444514849
  0
LINE
  8
Mountain
 62
1
 10
11.7873331613690481845
 20
-77.19405015346684706401
 11
18.8582281708356696015
 21
-70.12280897699956483393
  0
LINE
  8
Mountain
 62
1
 10
4.333265562076952903681
 20
-28.08832337494385811283
 11
-2.928835425149660220967
 21
-21.21359459922399892662
  0
LINE
  8
Mountain
 62
1
 10
-2.928835425149660220967
 20
-21.21359459922399892662
 11
-9.999728279304315847753
 21
-28.28483740925686262813
  0
LINE
  8
Mountain
 62
1
 10
38.85776430329867991986
 20
-41.83834696653232754215
 11
31.59574084385758041549
 21
-34.96353699855846741684
  0
LINE
  8
Mountain
 62
1
 10
31.59574084385758041549
 20
-34.96353699855846741684
 11
24.52477052362104004146
 21
-42.03470109547864552724
  0
LINE
  8
Valley
 62
5
 10
7.261927683807342326361
 20
-35.15917739226605931435
 11
-2.738072179997093513748
 21
-35.15917968796767922868
  0
LINE
  8
Mountain
 62
1
 10
4.332997430146003914331
 20
-42.23024574501115324665
 11
7.261927683807342326361
 21
-35.15917739226605931435
  0
LINE
  8
Valley
 62
5
 10
41.78664032903572689293
 20
-48.90904284883812636053
 11
31.78664042596934535823
 21
-48.90928863114542934909
  0
LINE
  8
Mountain
 62
1
 10
38.8578818868445807766
 20
-55.98018256886869181699
 11
41.78664032903572689293
 21
-48.90904284883812636053
  0
LINE
  8
Mountain
 62
1
 10
24.33299150971215851769
 20
-13.94596885258025587007
 11
27.2619199644832406193
 21
-6.874899579350595146821
  0
LINE
  8
Mountain
 62
1
 10
58.85718643459246379734
 20
-27.69542217544643492033
 11
61.78611555532557986226
 21
-20.62435335525132629186
  0
LINE
  8
Mountain
 62
1
 10
4.332997430146003914331
 20
-42.23024574501115324665
 11
-2.738072179997093513748
 21
-35.15917968796767922868
  0
LINE
  8
Mountain
 62
1
 10
38.8578818868445807766
 20
-55.98018256886869181699
 11
31.78664042596934535823
 21
-48.90928863114542934909
  0
LINE
  8
Mountain
 62
1
 10
24.33299150971215851769
 20
-13.94596885258025587007
 11
17.26191874227879452519
 21
-6.874903256240932236665
  0
LINE
  8
Mountain
 62
1
 10
58.85718643459246379734
 20
-27.69542217544643492033
 11
51.78611574255700134017
 21
-20.624357108992843024
  0
LINE
  8
Valley
 62
5
 10
4.332997430146003914331
 20
-42.23024574501115324665
 11
-5.667002497464309840325
 21
-42.23024805030361505942
  0
LINE
  8
Mountain
 62
1
 10
-2.738068836753515533644
 20
-49.30131493040678236639
 11
4.332997430146003914331
 21
-42.23024574501115324665
  0
LINE
  8
Valley
 62
5
 10
38.8578818868445807766
 20
-55.98018256886869181699
 11
28.85788192987035571946
 21
-55.9804282856987143191
  0
LINE
  8
Mountain
 62
1
 10
31.78698700168372326402
 20
-63.05142385449779141027
 11
38.8578818868445807766
 21
-55.98018256886869181699
  0
LINE
  8
Valley
 62
5
 10
24.33299150971215851769
 20
-13.94596885258025587007
 11
14.33299041525079076109
 21
-13.94597236825463859589
  0
LINE
  8
Mountain
 62
1
 10
17.2619248336383428466
 20
-21.01703869988570261285
 11
24.33299150971215851769
 21
-13.94596885258025587007
  0
LINE
  8
Valley
 62
5
 10
58.85718643459246379734
 20
-27.69542217544643492033
 11
48.85718659661543483708
 21
-27.69566753603903919156
  0
LINE
  8
Mountain
 62
1
 10
51.78629140142203368669
 20
-34.76666407889567267375
 11
58.85718643459246379734
 21
-27.69542217544643492033
  0
LINE
  8
Mountain
 62
1
 10
-2.738068836753515533644
 20
-49.30131493040678236639
 11
-12.73806888985821217375
 21
-49.3013172752792030451
  0
LINE
  8
Valley
 62
5
 10
-5.666998830429620603866
 20
-56.37238402450500274199
 11
-2.738068836753515533644
 21
-49.30131493040678236639
  0
LINE
  8
Mountain
 62
1
 10
31.78698700168372326402
 20
-63.05142385449779141027
 11
21.78698683802563351719
 21
-63.0516692169418391245
  0
LINE
  8
Valley
 62
5
 10
28.85822816706600590919
 20
-70.12256356843258231493
 11
31.78698700168372326402
 21
-63.05142385449779141027
  0
LINE
  8
Mountain
 62
1
 10
17.2619248336383428466
 20
-21.01703869988570261285
 11
7.261925000578036026866
 21
-21.01704125589611038549
  0
LINE
  8
Valley
 62
5
 10
14.3329946708352036211
 20
-28.08810737409960367472
 11
17.2619248336383428466
 21
-21.01703869988570261285
  0
LINE
  8
Mountain
 62
1
 10
51.78629140142203368669
 20
-34.76666407889567267375
 11
41.78629156949050837966
 21
-34.76690933331019550678
  0
LINE
  8
Valley
 62
5
 10
48.85753282768985172879
 20
-41.83780363257511680786
 11
51.78629140142203368669
 21
-34.76666407889567267375
  0
LINE
  8
Valley
 62
5
 10
-5.666998830429620603866
 20
-56.37238402450500274199
 11
-12.73806888985821217375
 21
-49.3013172752792030451
  0
LINE
  8
Valley
 62
5
 10
28.85822816706600590919
 20
-70.12256356843258231493
 11
21.78698683802563351719
 21
-63.0516692169418391245
  0
LINE
  8
Valley
 62
5
 10
14.3329946708352036211
 20
-28.08810737409960367472
 11
7.261925000578036026866
 21
-21.01704125589611038549
  0
LINE
  8
Valley
 62
5
 10
48.85753282768985172879
 20
-41.83780363257511680786
 11
41.78629156949050837966
 21
-34.76690933331019550678
  0
LINE
  8
Mountain
 62
1
 10
-5.666998830429620603866
 20
-56.37238402450500274199
 11
-15.66699937129440201034
 21
-56.37238563233353971782
  0
LINE
  8
Valley
 62
5
 10
-12.73806651285334545776
 20
-63.44345310123672021518
 11
-5.666998830429620603866
 21
-56.37238402450500274199
  0
LINE
  8
Mountain
 62
1
 10
28.85822816706600590919
 20
-70.12256356843258231493
 11
18.8582281708356696015
 21
-70.12280897699956483393
  0
LINE
  8
Valley
 62
5
 10
21.78733279409210865651
 20
-77.19380553841810410631
 11
28.85822816706600590919
 21
-70.12256356843258231493
  0
LINE
  8
Mountain
 62
1
 10
14.3329946708352036211
 20
-28.08810737409960367472
 11
4.332994739258802852078
 21
-28.08810988945100461933
  0
LINE
  8
Mountain
 62
1
 10
4.332994739258802852078
 20
-28.08810988945100461933
 11
-2.738072179997093513748
 21
-35.15917968796767922868
  0
LINE
  8
Mountain
 62
1
 10
48.85753282768985172879
 20
-41.83780363257511680786
 11
38.85753268020970807584
 21
-41.8380489769804739808
  0
LINE
  8
Mountain
 62
1
 10
38.85753268020970807584
 20
-41.8380489769804739808
 11
31.78664042596934535823
 21
-48.90928863114542934909
  0
LINE
  8
Mountain
 62
1
 10
4.333739703154500411131
 20
-42.23106307961938910012
 11
11.59576371349750445461
 21
-49.1058730688785374241
  0
LINE
  8
Valley
 62
5
 10
11.59576371349750445461
 20
-49.1058730688785374241
 11
14.52476916911007087663
 21
-42.03483577447397578908
  0
LINE
  8
Valley
 62
5
 10
49.04898508312996341374
 20
-55.78387630232425919985
 11
41.78688695566220445698
 21
-48.90914518411487676985
  0
LINE
  8
Mountain
 62
1
 10
24.33299150971215851769
 20
-13.94596885258025587007
 11
31.59508929048211101076
 21
-20.8206995347713146316
  0
LINE
  8
Valley
 62
5
 10
31.59508929048211101076
 20
-20.8206995347713146316
 11
34.52401807582664616803
 21
-13.74963051203268271649
  0
LINE
  8
Mountain
 62
1
 10
-2.736987017581775205599
 20
-49.30233192779427042751
 11
4.525038113704061615294
 21
-56.17714034419707758161
  0
LINE
  8
Mountain
 62
1
 10
4.525038113704061615294
 20
-56.17714034419707758161
 11
11.59600902535273903027
 21
-49.10597447507088020302
  0
LINE
  8
Mountain
 62
1
 10
46.12005660236316373357
 20
-62.854945578377666493
 11
38.85795836120927759794
 21
-55.98021442727009855389
  0
LINE
  8
Mountain
 62
1
 10
17.26263031978163553504
 20
-21.01778564094204782009
 11
24.5246528808021793111
 21
-27.89259621672302102979
  0
LINE
  8
Mountain
 62
1
 10
24.5246528808021793111
 20
-27.89259621672302102979
 11
31.5956254200233672691
 21
-20.82143205428845789129
  0
LINE
  8
Mountain
 62
1
 10
66.1192842285963138238
 20
-34.57015316134837945583
 11
58.85718643459246379734
 21
-27.69542217544643492033
  0
LINE
  8
Valley
 62
5
 10
-5.665897003128975484287
 20
-56.37340930948995776362
 11
1.596128056415058615869
 21
-63.24821756468279687624
  0
LINE
  8
Mountain
 62
1
 10
1.596128056415058615869
 20
-63.24821756468279687624
 11
4.525038113704061615294
 21
-56.17714034419707758161
  0
LINE
  8
Mountain
 62
1
 10
39.0491612648099675198
 20
-69.92618659031151651106
 11
31.78706316295632916535
 21
-63.05145539982243008126
  0
LINE
  8
Valley
 62
5
 10
14.33371747435851517594
 20
-28.08886148821893868899
 11
21.59574003050773427503
 21
-34.96367210157320215558
  0
LINE
  8
Mountain
 62
1
 10
21.59574003050773427503
 20
-34.96367210157320215558
 11
24.5246528808021793111
 21
-27.89259621672302102979
  0
LINE
  8
Mountain
 62
1
 10
59.04871202342052072254
 20
-41.6415243357136048985
 11
51.78660955896041429014
 21
-34.76679507337688335156
  0
LINE
  8
Valley
 62
5
 10
-5.474841248740508703463
 20
-70.3193832187463954142
 11
1.596128056415058615869
 21
-63.24821756468279687624
  0
LINE
  8
Valley
 62
5
 10
36.1203262617552525171
 20
-76.99729487117058113199
 11
28.85822816706600590919
 21
-70.12256356843258231493
  0
LINE
  8
Valley
 62
5
 10
14.33371747435851517594
 20
-28.08886148821893868899
 11
7.262744647410334764004
 21
-35.16002566517086336262
  0
LINE
  8
Valley
 62
5
 10
7.262744647410334764004
 20
-35.16002566517086336262
 11
14.52476916911007087663
 21
-42.03483577447397578908
  0
LINE
  8
Valley
 62
5
 10
56.11987933467504063856
 20
-48.71263320734223611908
 11
48.85777780134170455995
 21
-41.83790431495869199807
  0
LINE
  8
Valley
 62
5
 10
48.85777780134170455995
 20
-41.83790431495869199807
 11
41.78688695566220445698
 21
-48.90914518411487676985
  0
POLYLINE
  8
Outline
 70
1
 62
3
 10
0
 20
0
  0
VERTEX
 10
10.00000033960145984224
 20
0
  0
VERTEX
 10
0
 20
0
  0
VERTEX
 10
-2.928930778096592746351
 20
-7.071068747182866154333
  0
VERTEX
 10
-9.999998858375215959882
 20
-14.14213745949739831076
  0
VERTEX
 10
-12.92893083401679277245
 20
-21.21320539215522060772
  0
VERTEX
 10
-19.99999820542115713806
 20
-28.28427382352404961807
  0
VERTEX
 10
-22.92892980757054388619
 20
-35.35534171302347772325
  0
VERTEX
 10
-29.99999731756939880256
 20
-42.42640979757827324192
  0
VERTEX
 10
-32.92892944060663751316
 20
-49.49747774351206430765
  0
VERTEX
 10
-39.99999675242217733739
 20
-56.56854606383281236504
  0
VERTEX
 10
-29.99999686067386761579
 20
-56.56854549425510469973
  0
VERTEX
 10
-22.73806637068096847543
 20
-63.44345452977738375466
  0
VERTEX
 10
-12.73686701885819516633
 20
-63.44457605154795487579
  0
VERTEX
 10
-5.474841248740508703463
 20
-70.3193832187463954142
  0
VERTEX
 10
4.525159046908343363214
 20
-70.31924447817333145849
  0
VERTEX
 10
11.7873331613690481845
 20
-77.19405015346684706401
  0
VERTEX
 10
21.78733279409210865651
 20
-77.19380553841810410631
  0
VERTEX
 10
29.04943023540072744026
 20
-84.06853525081757538828
  0
VERTEX
 10
36.1203262617552525171
 20
-76.99729487117058113199
  0
VERTEX
 10
39.0491612648099675198
 20
-69.92618659031151651106
  0
VERTEX
 10
46.12005660236316373357
 20
-62.854945578377666493
  0
VERTEX
 10
49.04898508312996341374
 20
-55.78387630232425919985
  0
VERTEX
 10
56.11987933467504063856
 20
-48.71263320734223611908
  0
VERTEX
 10
59.04839292793411686944
 20
-41.64139433203123275007
  0
VERTEX
 10
66.1192842285963138238
 20
-34.57015316134837945583
  0
VERTEX
 10
69.04821356315612490562
 20
-27.4990844248013637241
  0
VERTEX
 10
61.78611555532557986226
 20
-20.62435335525132629186
  0
VERTEX
 10
51.78611574255700134017
 20
-20.624357108992843024
  0
VERTEX
 10
44.52401810061249420869
 20
-13.74962591252046983925
  0
VERTEX
 10
34.52401807582664616803
 20
-13.74963051203268271649
  0
VERTEX
 10
27.2619199644832406193
 20
-6.874899579350595146821
  0
VERTEX
 10
17.26191874227879452519
 20
-6.874903256240932236665
  0
SEQEND
  0
ENDSEC
  0
EOF
