  0
SECTION
  2
HEADER
  9
$ACADVER
  1
AC1006
  0
ENDSEC
  0
SECTION
  2
TABLES
  0
TABLE
  2
LAYER
 70
5
  0
LAYER
  2
Crease
 62
0
  0
LAYER
  2
Outline
 62
3
  0
LAYER
  2
Mountain
 62
1
  0
LAYER
  2
Valley
 62
5
  0
LAYER
  2
Triangulation
 62
7
  0
ENDTAB
  0
ENDSEC
  0
SECTION
  2
ENTITIES
  0
LINE
  8
Valley
 62
5
 10
-14.31609089800881484678
 20
-41.13791885558018890379
 11
-10.00000247692222998808
 21
-32.91033576179454911426
  0
LINE
  8
Valley
 62
5
 10
19.75990956353676608614
 20
-55.34895276333914182487
 11
24.07669159084827015249
 21
-47.12173301251122836675
  0
LINE
  8
Valley
 62
5
 10
5.683912998004002403718
 20
-8.227584828162417096564
 11
9.999999685564839424501
 21
0
  0
LINE
  8
Valley
 62
5
 10
39.76268773140981949155
 20
-22.44030536901895800383
 11
44.0794708415279146152
 21
-14.21308724974952752973
  0
LINE
  8
Mountain
 62
1
 10
-24.31609063360147260369
 20
-41.13791820017436151602
 11
-14.31609089800881484678
 21
-41.13791885558018890379
  0
LINE
  8
Valley
 62
5
 10
-14.31609089800881484678
 20
-41.13791885558018890379
 11
-20.00000264549252193547
 21
-32.91033460275742328349
  0
LINE
  8
Mountain
 62
1
 10
9.759909756029909289055
 20
-55.34810864404462193988
 11
19.75990956353676608614
 21
-55.34895276333914182487
  0
LINE
  8
Valley
 62
5
 10
19.75990956353676608614
 20
-55.34895276333914182487
 11
14.07669174916957111066
 21
-47.12088897667157993965
  0
LINE
  8
Mountain
 62
1
 10
-4.31608727633904720733
 20
-8.227584019011143112721
 11
5.683912998004002403718
 21
-8.227584828162417096564
  0
LINE
  8
Valley
 62
5
 10
5.683912998004002403718
 20
-8.227584828162417096564
 11
0
 21
0
  0
LINE
  8
Mountain
 62
1
 10
29.76268797489689887925
 20
-22.43946102880297388538
 11
39.76268773140981949155
 21
-22.44030536901895800383
  0
LINE
  8
Valley
 62
5
 10
39.76268773140981949155
 20
-22.44030536901895800383
 11
34.07947006753015983804
 21
-14.21224136641691160321
  0
LINE
  8
Valley
 62
5
 10
-20.00000369838706504311
 20
-49.3655021832106726265
 11
-14.31609089800881484678
 21
-41.13791885558018890379
  0
LINE
  8
Valley
 62
5
 10
14.0753025287509938579
 20
-63.57605687802531235775
 11
19.75990956353676608614
 21
-55.34895276333914182487
  0
LINE
  8
Valley
 62
5
 10
-1.130265363524785016125e-06
 20
-16.4551688246747858102
 11
5.683912998004002403718
 21
-8.227584828162417096564
  0
LINE
  8
Valley
 62
5
 10
34.07808033201137476453
 20
-30.6674094492321849259
 11
39.76268773140981949155
 21
-22.44030536901895800383
  0
LINE
  8
Valley
 62
5
 10
-20.00000369838706504311
 20
-49.3655021832106726265
 11
-30.00000358423417878839
 21
-49.36550201195530718223
  0
LINE
  8
Mountain
 62
1
 10
-24.31609096316483942246
 20
-57.59308597031628806917
 11
-20.00000369838706504311
 21
-49.3655021832106726265
  0
LINE
  8
Valley
 62
5
 10
14.0753025287509938579
 20
-63.57605687802531235775
 11
4.075302804241526466456
 21
-63.57521296325261772608
  0
LINE
  8
Mountain
 62
1
 10
9.758520910327504793713
 20
-71.80327657267667973429
 11
14.0753025287509938579
 21
-63.57605687802531235775
  0
LINE
  8
Valley
 62
5
 10
-1.130265363524785016125e-06
 20
-16.4551688246747858102
 11
-10.00000087579536511839
 21
-16.45516828509015994086
  0
LINE
  8
Mountain
 62
1
 10
-4.316088689891646623664
 20
-24.68275276828060427192
 11
-1.130265363524785016125e-06
 21
-16.4551688246747858102
  0
LINE
  8
Valley
 62
5
 10
34.07808033201137476453
 20
-30.6674094492321849259
 11
24.07808074775616802299
 21
-30.66656519553468385197
  0
LINE
  8
Mountain
 62
1
 10
29.76129862477900189788
 20
-38.89462911652762500125
 11
34.07808033201137476453
 21
-30.6674094492321849259
  0
LINE
  8
Valley
 62
5
 10
-34.31609085159403349508
 20
-57.59308577512867799442
 11
-24.31609096316483942246
 21
-57.59308597031628806917
  0
LINE
  8
Mountain
 62
1
 10
-24.31609096316483942246
 20
-57.59308597031628806917
 11
-30.00000358423417878839
 21
-49.36550201195530718223
  0
LINE
  8
Valley
 62
5
 10
-0.2407219816004064760762
 20
-71.80195741451177582348
 11
9.759277776209650312467
 21
-71.80251957282602859323
  0
LINE
  8
Mountain
 62
1
 10
9.759277776209650312467
 20
-71.80251957282602859323
 11
4.075827828220278448157
 21
-63.57461610409405494693
  0
LINE
  8
Valley
 62
5
 10
-14.31608872229326223646
 20
-24.68275152786950243922
 11
-4.316088689891646623664
 21
-24.68275276828060427192
  0
LINE
  8
Mountain
 62
1
 10
-4.316088689891646623664
 20
-24.68275276828060427192
 11
-10.00000087579536511839
 21
-16.45516828509015994086
  0
LINE
  8
Valley
 62
5
 10
19.76129900494686353341
 20
-38.89378477815435530829
 11
29.76129862477900189788
 21
-38.89462911652762500125
  0
LINE
  8
Mountain
 62
1
 10
29.76129862477900189788
 20
-38.89462911652762500125
 11
24.07808074775616802299
 21
-30.66656519553468385197
  0
LINE
  8
Mountain
 62
1
 10
-30.00000389488243968117
 20
-65.82066974688784455338
 11
-24.31609096316483942246
 21
-57.59308597031628806917
  0
LINE
  8
Mountain
 62
1
 10
4.074902709078799034614
 20
-80.02978355376693286871
 11
9.759277776209650312467
 21
-71.80251957282602859323
  0
LINE
  8
Mountain
 62
1
 10
-20.00000264549252193547
 20
-32.91033460275742328349
 11
-10.00000247692222998808
 21
-32.91033576179454911426
  0
LINE
  8
Valley
 62
5
 10
19.76129900494686353341
 20
-38.89378477815435530829
 11
14.07669174916957111066
 21
-47.12088897667157993965
  0
LINE
  8
Mountain
 62
1
 10
14.07669174916957111066
 20
-47.12088897667157993965
 11
24.07669159084827015249
 21
-47.12173301251122836675
  0
LINE
  8
Mountain
 62
1
 10
-2.956921367933952105034
 20
-40.01725875845404800657
 11
-9.9948693950739411207
 21
-32.91322553488303981339
  0
LINE
  8
Mountain
 62
1
 10
-7.273933455679022941354
 20
-48.24435762503961910852
 11
-2.956921367933952105034
 21
-40.01725875845404800657
  0
LINE
  8
Mountain
 62
1
 10
31.11472767665197380893
 20
-54.2266291497980148506
 11
24.07734268764900065207
 21
-47.1220362363176548115
  0
LINE
  8
Mountain
 62
1
 10
26.79706264194079423646
 20
-62.45338414577572905273
 11
31.11472767665197380893
 21
-54.2266291497980148506
  0
LINE
  8
Mountain
 62
1
 10
12.72665254796772416057
 20
-15.33426471531050516717
 11
17.04366421984367363507
 21
-7.107165592552362021195
  0
LINE
  8
Mountain
 62
1
 10
46.80083356411366679595
 20
-29.54414265198379041522
 11
51.11761643321360537584
 21
-21.31692445001513647185
  0
LINE
  8
Valley
 62
5
 10
-7.273933455679022941354
 20
-48.24435762503961910852
 11
-14.31188137356325640326
 21
-41.14032407576394234638
  0
LINE
  8
Valley
 62
5
 10
-12.95765724048441391858
 20
-56.47207210649181519102
 11
-7.273933455679022941354
 21
-48.24435762503961910852
  0
LINE
  8
Valley
 62
5
 10
26.79706264194079423646
 20
-62.45338414577572905273
 11
19.7596781949544393342
 21
-55.34879290150820452254
  0
LINE
  8
Valley
 62
5
 10
21.11268674174908710484
 20
-70.68064825807191198237
 11
26.79706264194079423646
 21
-62.45338414577572905273
  0
LINE
  8
Valley
 62
5
 10
12.72665254796772416057
 20
-15.33426471531050516717
 11
5.688704379151793943947
 21
-8.230231895441111333867
  0
LINE
  8
Valley
 62
5
 10
7.042930062049096662236
 20
-23.56198015503625242673
 11
12.72665254796772416057
 21
-15.33426471531050516717
  0
LINE
  8
Valley
 62
5
 10
46.80026032700463645142
 20
-29.54488210330265118841
 11
39.7628768736924129712
 21
-22.44028957196807283481
  0
LINE
  8
Valley
 62
5
 10
41.11588558481874144945
 20
-37.77214487664727471383
 11
46.80026032700463645142
 21
-29.54488210330265118841
  0
LINE
  8
Valley
 62
5
 10
-12.95765724048441391858
 20
-56.47207210649181519102
 11
-19.99560483673121424886
 21
-49.36803820118424823704
  0
LINE
  8
Valley
 62
5
 10
-17.27830711128189733472
 20
-64.69728158443065524352
 11
-12.96198797877917741062
 21
-56.46981957171788479855
  0
LINE
  8
Valley
 62
5
 10
21.11268674174908710484
 20
-70.68064825807191198237
 11
14.0753025287509938579
 21
-63.57605687802531235775
  0
LINE
  8
Valley
 62
5
 10
16.7966623597360822373
 20
-78.9071094218578679147
 11
21.11344341029116478126
 21
-70.67988926234262692105
  0
LINE
  8
Valley
 62
5
 10
7.042930062049096662236
 20
-23.56198015503625242673
 11
0.00498110471923141062689
 21
-16.45794773745219430339
  0
LINE
  8
Valley
 62
5
 10
2.726802241004742999309
 20
-31.78954310102538016736
 11
7.042930062049096662236
 21
-23.56198015503625242673
  0
LINE
  8
Valley
 62
5
 10
41.11588558481874144945
 20
-37.77214487664727471383
 11
34.0785003646159765367
 21
-30.66755318358381998678
  0
LINE
  8
Valley
 62
5
 10
36.79910416339071588254
 20
-45.999364840668036436
 11
41.11588558481874144945
 21
-37.77214487664727471383
  0
LINE
  8
Mountain
 62
1
 10
-17.27830711128189733472
 20
-64.69728158443065524352
 11
-24.31609096316483942246
 21
-57.59308597031628806917
  0
LINE
  8
Mountain
 62
1
 10
-22.96245151556530927905
 20
-72.92470497256559269772
 11
-17.27830711128189733472
 21
-64.69728158443065524352
  0
LINE
  8
Mountain
 62
1
 10
16.7966623597360822373
 20
-78.9071094218578679147
 11
9.759277776209650312467
 21
-71.80251957282602859323
  0
LINE
  8
Mountain
 62
1
 10
11.11827342434302323682
 20
-87.13956740683485691079
 11
16.8017678677644433094
 21
-78.91169445095806622703
  0
LINE
  8
Mountain
 62
1
 10
2.726802241004742999309
 20
-31.78954310102538016736
 11
-4.311146474428298347448
 21
-24.6855106871939398161
  0
LINE
  8
Mountain
 62
1
 10
-4.311146474428298347448
 20
-24.6855106871939398161
 11
-9.9948693950739411207
 21
-32.91322553488303981339
  0
LINE
  8
Mountain
 62
1
 10
36.79910416339071588254
 20
-45.999364840668036436
 11
29.7617196324148238773
 21
-38.89477336247327343699
  0
LINE
  8
Mountain
 62
1
 10
29.7617196324148238773
 20
-38.89477336247327343699
 11
24.07734268764900065207
 21
-47.1220362363176548115
  0
LINE
  8
Valley
 62
5
 10
7.039965731999998865831
 20
-40.01637801759117962774
 11
-2.960034501691179986693
 21
-40.0152548998699302274
  0
LINE
  8
Mountain
 62
1
 10
2.722955001098132932214
 20
-48.24347756517799012954
 11
7.039965731999998865831
 21
-40.01637801759117962774
  0
LINE
  8
Valley
 62
5
 10
41.11483354981148607976
 20
-54.22641045742211218794
 11
31.11483363737258045489
 21
-54.22556731569931542936
  0
LINE
  8
Mountain
 62
1
 10
36.79805243966541183909
 20
-62.45363066731096068906
 11
41.11483354981148607976
 21
-54.22641045742211218794
  0
LINE
  8
Mountain
 62
1
 10
22.72665221920897948849
 20
-15.33538820842924188526
 11
27.04366377351543704322
 21
-7.108289197548101512325
  0
LINE
  8
Mountain
 62
1
 10
56.80083437098740262172
 20
-29.54498816734361810177
 11
61.11761717325271803247
 21
-21.31777004318580281961
  0
LINE
  8
Mountain
 62
1
 10
2.722955001098132932214
 20
-48.24347756517799012954
 11
-2.960034501691179986693
 21
-40.0152548998699302274
  0
LINE
  8
Mountain
 62
1
 10
36.79805243966541183909
 20
-62.45363066731096068906
 11
31.11483363737258045489
 21
-54.22556731569931542936
  0
LINE
  8
Mountain
 62
1
 10
22.72665221920897948849
 20
-15.33538820842924188526
 11
17.04366421984367363507
 21
-7.107165592552362021195
  0
LINE
  8
Mountain
 62
1
 10
56.80083437098740262172
 20
-29.54498816734361810177
 11
51.11761643321360537584
 21
-21.31692445001513647185
  0
LINE
  8
Valley
 62
5
 10
2.722955001098132932214
 20
-48.24347756517799012954
 11
-7.2770451965834475061
 21
-48.24235449732809399848
  0
LINE
  8
Mountain
 62
1
 10
-2.961882645385792933723
 20
-56.47042350928976617297
 11
2.722955001098132932214
 21
-48.24347756517799012954
  0
LINE
  8
Valley
 62
5
 10
36.79805243966541183909
 20
-62.45363066731096068906
 11
26.7980517706285077395
 21
-62.45278576610898824129
  0
LINE
  8
Mountain
 62
1
 10
31.11344408851978471375
 20
-70.68073399853760463429
 11
36.79805243966541183909
 21
-62.45363066731096068906
  0
LINE
  8
Valley
 62
5
 10
22.72665221920897948849
 20
-15.33538820842924188526
 11
12.72665254796772416057
 21
-15.33426471531050516717
  0
LINE
  8
Mountain
 62
1
 10
17.04181514396967855873
 20
-23.56233385025073445718
 11
22.72665221920897948849
 21
-15.33538820842924188526
  0
LINE
  8
Valley
 62
5
 10
56.80083437098740262172
 20
-29.54498816734361810177
 11
46.80083356411366679595
 21
-29.54414265198379041522
  0
LINE
  8
Mountain
 62
1
 10
51.11622491500813225684
 20
-37.77209087360688499757
 11
56.80083437098740262172
 21
-29.54498816734361810177
  0
LINE
  8
Mountain
 62
1
 10
-2.961882645385792933723
 20
-56.47042350928976617297
 11
-12.96188252174082577994
 21
-56.46929963126196128087
  0
LINE
  8
Valley
 62
5
 10
-7.278894783928119061045
 20
-64.69752250873311538726
 11
-2.961882645385792933723
 21
-56.47042350928976617297
  0
LINE
  8
Mountain
 62
1
 10
31.11344408851978471375
 20
-70.68073399853760463429
 11
21.11344341029116478126
 21
-70.67988926234262692105
  0
LINE
  8
Valley
 62
5
 10
26.7966620341117618409
 20
-78.90795262080605709798
 11
31.11344408851978471375
 21
-70.68073399853760463429
  0
LINE
  8
Mountain
 62
1
 10
17.04181514396967855873
 20
-23.56233385025073445718
 11
7.041815302377084861973
 21
-23.56120996523066324357
  0
LINE
  8
Valley
 62
5
 10
12.72480293612682089588
 20
-31.7894327636874294285
 11
17.04181514396967855873
 21
-23.56233385025073445718
  0
LINE
  8
Mountain
 62
1
 10
51.11622491500813225684
 20
-37.77209087360688499757
 11
41.11622497840051693174
 21
-37.77124385340945877942
  0
LINE
  8
Valley
 62
5
 10
46.79943931658144151697
 20
-45.99930777307747575833
 11
51.11622491500813225684
 21
-37.77209087360688499757
  0
LINE
  8
Valley
 62
5
 10
-7.278306703185798198774
 20
-64.69756340018864193553
 11
-12.96198797877917741062
 21
-56.46981957171788479855
  0
LINE
  8
Valley
 62
5
 10
26.7966620341117618409
 20
-78.90795262080605709798
 11
21.11344341029116478126
 21
-70.67988926234262692105
  0
LINE
  8
Valley
 62
5
 10
12.72480293612682089588
 20
-31.7894327636874294285
 11
7.041815302377084861973
 21
-23.56120996523066324357
  0
LINE
  8
Valley
 62
5
 10
46.79943931658144151697
 20
-45.99930777307747575833
 11
41.11622497840051693174
 21
-37.77124385340945877942
  0
LINE
  8
Mountain
 62
1
 10
-7.278306703185798198774
 20
-64.69756340018864193553
 11
-17.27830711128189733472
 21
-64.69728158443065524352
  0
LINE
  8
Valley
 62
5
 10
-12.96245153226357693654
 20
-72.92498674096788136012
 11
-7.278306703185798198774
 21
-64.69756340018864193553
  0
LINE
  8
Mountain
 62
1
 10
26.80176756480011590611
 20
-78.91118672607407802388
 11
16.8017678677644433094
 21
-78.91169445095806622703
  0
LINE
  8
Valley
 62
5
 10
21.11827301413545754372
 20
-87.13905958826251207938
 11
26.80176756480011590611
 21
-78.91118672607407802388
  0
LINE
  8
Mountain
 62
1
 10
12.72480293612682089588
 20
-31.7894327636874294285
 11
2.724803143780148317887
 21
-31.78830893268769841598
  0
LINE
  8
Mountain
 62
1
 10
2.724803143780148317887
 20
-31.78830893268769841598
 11
-2.960034501691179986693
 21
-40.0152548998699302274
  0
LINE
  8
Mountain
 62
1
 10
46.79943931658144151697
 20
-45.99930777307747575833
 11
36.79944068612893204318
 21
-45.99846231111223460175
  0
LINE
  8
Mountain
 62
1
 10
36.79944068612893204318
 20
-45.99846231111223460175
 11
31.11483363737258045489
 21
-54.22556731569931542936
  0
LINE
  8
Mountain
 62
1
 10
2.726070783315205581232
 20
-48.24548326163367306663
 11
9.764020065518963065188
 21
-55.34951528561011713236
  0
LINE
  8
Valley
 62
5
 10
9.764020065518963065188
 20
-55.34951528561011713236
 11
14.08103060554888230627
 21
-47.12241553972304330955
  0
LINE
  8
Valley
 62
5
 10
48.15609342416438209966
 20
-61.33225311422433634334
 11
41.1179490930129745152
 21
-54.22841553705123374129
  0
LINE
  8
Mountain
 62
1
 10
22.72665221920897948849
 20
-15.33538820842924188526
 11
29.7646013913738798351
 21
-22.43942061029328982613
  0
LINE
  8
Valley
 62
5
 10
29.7646013913738798351
 20
-22.43942061029328982613
 11
34.08161251436307281892
 21
-14.21232112308526396305
  0
LINE
  8
Mountain
 62
1
 10
-2.961882645385792933723
 20
-56.47042350928976617297
 11
4.075302804241526466456
 21
-63.57521296325261772608
  0
LINE
  8
Mountain
 62
1
 10
4.075302804241526466456
 20
-63.57521296325261772608
 11
9.759909756029909289055
 21
-55.34810864404462193988
  0
LINE
  8
Mountain
 62
1
 10
43.83930931549102893996
 20
-69.55947291203045779184
 11
36.8011651223450684256
 21
-62.4556342460380236048
  0
LINE
  8
Mountain
 62
1
 10
17.04293088677810885656
 20
-23.56310471914904525192
 11
24.08087989493522584894
 21
-30.66713671186339951191
  0
LINE
  8
Mountain
 62
1
 10
24.08087989493522584894
 20
-30.66713671186339951191
 11
29.7646013913738798351
 21
-22.43942061029328982613
  0
LINE
  8
Mountain
 62
1
 10
63.83898029455765055218
 20
-36.64882498198996785277
 11
56.80083437098740262172
 21
-29.54498816734361810177
  0
LINE
  8
Valley
 62
5
 10
-7.278306703185798198774
 20
-64.69756340018864193553
 11
-0.2407219816004064760762
 21
-71.80195741451177582348
  0
LINE
  8
Mountain
 62
1
 10
-0.2407219816004064760762
 20
-71.80195741451177582348
 11
4.075827828220278448157
 21
-63.57461610409405494693
  0
LINE
  8
Mountain
 62
1
 10
38.15581392679828809378
 20
-77.78734516714615665478
 11
31.11766980750436317749
 21
-70.68350653082580947739
  0
LINE
  8
Valley
 62
5
 10
12.72680295525148252977
 20
-31.79066757900196904529
 11
19.76475209620058848259
 21
-38.89469938258687164989
  0
LINE
  8
Mountain
 62
1
 10
19.76475209620058848259
 20
-38.89469938258687164989
 11
24.08087989493522584894
 21
-30.66713671186339951191
  0
LINE
  8
Mountain
 62
1
 10
58.15548684469424500776
 20
-44.87669854237004329889
 11
51.11734081871425416921
 21
-37.77286180806530779819
  0
LINE
  8
Valley
 62
5
 10
-5.925097762211824381495
 20
-80.02922252745595699253
 11
-0.2407219816004064760762
 21
-71.80195741451177582348
  0
LINE
  8
Valley
 62
5
 10
33.83991333682998003951
 20
-86.01502629782990538843
 11
26.80176756480011590611
 21
-78.91118672607407802388
  0
LINE
  8
Valley
 62
5
 10
12.72680295525148252977
 20
-31.79066757900196904529
 11
7.043081503238603602313
 21
-40.01838370828611601837
  0
LINE
  8
Valley
 62
5
 10
7.043081503238603602313
 20
-40.01838370828611601837
 11
14.08103060554888230627
 21
-47.12241553972304330955
  0
LINE
  8
Valley
 62
5
 10
53.83958690602776897549
 20
-53.10437965011413297134
 11
46.8014414870878923125
 21
-46.00054366706944364296
  0
LINE
  8
Valley
 62
5
 10
46.8014414870878923125
 20
-46.00054366706944364296
 11
41.1179490930129745152
 21
-54.22841553705123374129
  0
POLYLINE
  8
Outline
 70
1
 62
3
 10
0
 20
0
  0
VERTEX
 10
9.999999685564839424501
 20
0
  0
VERTEX
 10
0
 20
0
  0
VERTEX
 10
-4.31608727633904720733
 20
-8.227584019011143112721
  0
VERTEX
 10
-10.00000087579536511839
 20
-16.45516828509015994086
  0
VERTEX
 10
-14.31608872229326223646
 20
-24.68275152786950243922
  0
VERTEX
 10
-20.00000264549252193547
 20
-32.91033460275742328349
  0
VERTEX
 10
-24.31609063360147260369
 20
-41.13791820017436151602
  0
VERTEX
 10
-30.00000358423417878839
 20
-49.36550201195530718223
  0
VERTEX
 10
-34.31609085159403349508
 20
-57.59308577512867799442
  0
VERTEX
 10
-40.00000365168453697606
 20
-65.82066913024625876005
  0
VERTEX
 10
-30.00000389488243968117
 20
-65.82066974688784455338
  0
VERTEX
 10
-22.96245151556530927905
 20
-72.92470497256559269772
  0
VERTEX
 10
-12.96248294797035605086
 20
-72.92463080550447784844
  0
VERTEX
 10
-5.925097762211824381495
 20
-80.02922252745595699253
  0
VERTEX
 10
4.074902709078799034614
 20
-80.02978355376693286871
  0
VERTEX
 10
11.11827342434302323682
 20
-87.13956740683485691079
  0
VERTEX
 10
21.11827301413545754372
 20
-87.13905958826251207938
  0
VERTEX
 10
28.15641967258210698333
 20
-94.24289661696199971175
  0
VERTEX
 10
33.83991333682998003951
 20
-86.01502629782990538843
  0
VERTEX
 10
38.15581392679828809378
 20
-77.78734516714615665478
  0
VERTEX
 10
43.83930931549102893996
 20
-69.55947291203045779184
  0
VERTEX
 10
48.15609342416438209966
 20
-61.33225311422433634334
  0
VERTEX
 10
53.83958690602776897549
 20
-53.10437965011413297134
  0
VERTEX
 10
58.15548684469424500776
 20
-44.87669854237004329889
  0
VERTEX
 10
63.83898029455765055218
 20
-36.64882498198996785277
  0
VERTEX
 10
68.15576283689875936034
 20
-28.42160655569730565162
  0
VERTEX
 10
61.11761717325271803247
 20
-21.31777004318580281961
  0
VERTEX
 10
51.11761643321360537584
 20
-21.31692445001513647185
  0
VERTEX
 10
44.0794708415279146152
 20
-14.21308724974952752973
  0
VERTEX
 10
34.07947006753015983804
 20
-14.21224136641691160321
  0
VERTEX
 10
27.04366377351543704322
 20
-7.108289197548101512325
  0
VERTEX
 10
17.04366421984367363507
 20
-7.107165592552362021195
  0
SEQEND
  0
ENDSEC
  0
EOF
