  0
SECTION
  2
HEADER
  9
$ACADVER
  1
AC1006
  0
ENDSEC
  0
SECTION
  2
TABLES
  0
TABLE
  2
LAYER
 70
5
  0
LAYER
  2
Crease
 62
0
  0
LAYER
  2
Outline
 62
3
  0
LAYER
  2
Mountain
 62
1
  0
LAYER
  2
Valley
 62
5
  0
LAYER
  2
Triangulation
 62
7
  0
ENDTAB
  0
ENDSEC
  0
SECTION
  2
ENTITIES
  0
LINE
  8
Valley
 62
5
 10
-14.32395452000248425861
 20
-24.02959404660613529359
 11
-9.998091077166343154659
 21
-19.222799407087947543
  0
LINE
  8
Valley
 62
5
 10
7.670631043064043197433
 20
-50.57940293687889266039
 11
11.99457440652725281893
 21
-45.77180168404501614532
  0
LINE
  8
Valley
 62
5
 10
5.673328418382689974919
 20
-4.804609206424379053146
 11
10.00019920974523657264
 21
0
  0
LINE
  8
Valley
 62
5
 10
27.65982620364858846074
 20
-31.34525232164149599612
 11
31.98334432329959398089
 21
-26.53688558575846556664
  0
LINE
  8
Valley
 62
5
 10
-14.32395452000248425861
 20
-24.02959404660613529359
 11
-19.99841856895199754263
 21
-19.22521222307624100267
  0
LINE
  8
Mountain
 62
1
 10
-24.32357871993153253243
 20
-24.03246763908492411588
 11
-14.32395452000248425861
 21
-24.02959404660613529359
  0
LINE
  8
Valley
 62
5
 10
7.670631043064043197433
 20
-50.57940293687889266039
 11
1.99441551976995778972
 21
-45.77651010399171127574
  0
LINE
  8
Mountain
 62
1
 10
-2.329997131156621659187
 20
-50.58476221031173736264
 11
7.670631043064043197433
 21
-50.57940293687889266039
  0
LINE
  8
Valley
 62
5
 10
5.673328418382689974919
 20
-4.804609206424379053146
 11
0
 21
0
  0
LINE
  8
Mountain
 62
1
 10
-4.326624434424076071082
 20
-4.804569400827470637694
 11
5.673328418382689974919
 21
-4.804609206424379053146
  0
LINE
  8
Valley
 62
5
 10
27.65982620364858846074
 20
-31.34525232164149599612
 11
21.98364749576807142262
 21
-26.54320645656359189957
  0
LINE
  8
Mountain
 62
1
 10
17.65946161950635584503
 20
-31.35128878164671206719
 11
27.65982620364858846074
 21
-31.34525232164149599612
  0
LINE
  8
Valley
 62
5
 10
-19.99546343185765095996
 20
-28.83708748513551256565
 11
-14.32395452000248425861
 21
-24.02959404660613529359
  0
LINE
  8
Valley
 62
5
 10
1.999271427373799703275
 20
-55.38744586959435167728
 11
7.670631043064043197433
 21
-50.57940293687889266039
  0
LINE
  8
Valley
 62
5
 10
1.941478778411109828994e-05
 20
-9.609519506236729569082
 11
5.673328418382689974919
 21
-4.804609206424379053146
  0
LINE
  8
Valley
 62
5
 10
21.98915040336180837244
 20
-36.15394034621861862888
 11
27.65982620364858846074
 21
-31.34525232164149599612
  0
LINE
  8
Mountain
 62
1
 10
-24.32122750394713506239
 20
-33.64391608036746106336
 11
-19.99546343185765095996
 21
-28.83708748513551256565
  0
LINE
  8
Valley
 62
5
 10
-19.99546343185765095996
 20
-28.83708748513551256565
 11
-29.99483234160837952231
 21
-28.84015361733618476592
  0
LINE
  8
Mountain
 62
1
 10
-2.32379769951314330001
 20
-60.19602643055029744801
 11
1.999271427373799703275
 21
-55.38744586959435167728
  0
LINE
  8
Valley
 62
5
 10
1.999271427373799703275
 20
-55.38744586959435167728
 11
-8.00086160191679418574
 21
-55.39346669848374915546
  0
LINE
  8
Mountain
 62
1
 10
-4.32648983890087102111
 20
-14.41602252156574337505
 11
1.941478778411109828994e-05
 21
-9.609519506236729569082
  0
LINE
  8
Valley
 62
5
 10
1.941478778411109828994e-05
 20
-9.609519506236729569082
 11
-10.00028382065404386481
 21
-9.610998051121896423865
  0
LINE
  8
Mountain
 62
1
 10
17.66643141120143312151
 20
-40.96299081604080072339
 11
21.98915040336180837244
 21
-36.15394034621861862888
  0
LINE
  8
Valley
 62
5
 10
21.98915040336180837244
 20
-36.15394034621861862888
 11
11.98920865898907450742
 21
-36.16064344306033007115
  0
LINE
  8
Mountain
 62
1
 10
-24.32122750394713506239
 20
-33.64391608036746106336
 11
-29.99483234160837952231
 21
-28.84015361733618476592
  0
LINE
  8
Valley
 62
5
 10
-34.3201699065409897571
 20
-33.6475418041005909231
 11
-24.32122750394713506239
 21
-33.64391608036746106336
  0
LINE
  8
Mountain
 62
1
 10
-2.329611248029777925694
 20
-60.18667480966342964166
 11
-8.0056723576771720019
 21
-55.38292993596436986081
  0
LINE
  8
Valley
 62
5
 10
-12.33017730389572186311
 20
-60.19029365798516550967
 11
-2.329611248029777925694
 21
-60.18667480966342964166
  0
LINE
  8
Mountain
 62
1
 10
-4.32648983890087102111
 20
-14.41602252156574337505
 11
-10.00028382065404386481
 21
-9.610998051121896423865
  0
LINE
  8
Valley
 62
5
 10
-14.32628583560071966474
 20
-14.41757850998411960575
 11
-4.32648983890087102111
 21
-14.41602252156574337505
  0
LINE
  8
Mountain
 62
1
 10
17.66643141120143312151
 20
-40.96299081604080072339
 11
11.98920865898907450742
 21
-36.16064344306033007115
  0
LINE
  8
Valley
 62
5
 10
7.666075441121837918956
 20
-40.96807593989884566099
 11
17.66643141120143312151
 21
-40.96299081604080072339
  0
LINE
  8
Mountain
 62
1
 10
-29.99223875069032985152
 20
-38.45218216499080199355
 11
-24.32122750394713506239
 21
-33.64391608036746106336
  0
LINE
  8
Mountain
 62
1
 10
-8.001308288868486329193
 20
-64.9939465118056745041
 11
-2.329611248029777925694
 21
-60.18667480966342964166
  0
LINE
  8
Mountain
 62
1
 10
-19.99841856895199754263
 20
-19.22521222307624100267
 11
-9.998091077166343154659
 21
-19.222799407087947543
  0
LINE
  8
Valley
 62
5
 10
7.666075441121837918956
 20
-40.96807593989884566099
 11
1.99441551976995778972
 21
-45.77651010399171127574
  0
LINE
  8
Mountain
 62
1
 10
1.99441551976995778972
 20
-45.77651010399171127574
 11
11.99457440652725281893
 21
-45.77180168404501614532
  0
LINE
  8
Mountain
 62
1
 10
-13.32846666716159589328
 20
-37.31006421643962767121
 11
-9.003305141252541332619
 21
-32.50329444832640035656
  0
LINE
  8
Mountain
 62
1
 10
-9.003305141252541332619
 20
-32.50329444832640035656
 11
-9.994673221303628452006
 21
-19.22755431537696679811
  0
LINE
  8
Mountain
 62
1
 10
8.667926898035046789914
 20
-63.85171381142337310166
 11
12.99001096077316930177
 21
-59.04190075014099647888
  0
LINE
  8
Mountain
 62
1
 10
12.99001096077316930177
 20
-59.04190075014099647888
 11
11.98993101342110989549
 21
-45.76680115249508418174
  0
LINE
  8
Mountain
 62
1
 10
6.667826824660521900512
 20
-18.08340302969386925724
 11
10.99184583183540375728
 21
-13.27539690352701029497
  0
LINE
  8
Mountain
 62
1
 10
28.65488064425153780235
 20
-44.62058135390056179403
 11
32.97820725382806728021
 21
-39.81323136666546247397
  0
LINE
  8
Valley
 62
5
 10
-13.32846666716159589328
 20
-37.31006421643962767121
 11
-14.31981295531600117954
 21
-24.03500015634432429579
  0
LINE
  8
Valley
 62
5
 10
8.667926898035046789914
 20
-63.85171381142337310166
 11
7.667679224925662673229
 21
-50.5759232650573551382
  0
LINE
  8
Valley
 62
5
 10
6.667826824660521900512
 20
-18.08340302969386925724
 11
5.674776222890159260714
 21
-4.807041189355773624925
  0
LINE
  8
Valley
 62
5
 10
28.65132787511170420203
 20
-44.61153374530652371277
 11
27.65223347113360574667
 21
-31.33650814734838618847
  0
LINE
  8
Valley
 62
5
 10
-19.00134295939410478127
 20
-42.11701542529125674719
 11
-13.32846666716159589328
 21
-37.31006421643962767121
  0
LINE
  8
Valley
 62
5
 10
2.999451864128150013755
 20
-68.6623901483396821277
 11
8.667926898035046789914
 21
-63.85171381142337310166
  0
LINE
  8
Valley
 62
5
 10
0.9951174408006404625837
 20
-22.89058683607730415588
 11
6.667826824660521900512
 21
-18.08340302969386925724
  0
LINE
  8
Valley
 62
5
 10
22.98191951725495130177
 20
-49.42192144744862503103
 11
28.65132787511170420203
 21
-44.61153374530652371277
  0
LINE
  8
Valley
 62
5
 10
-23.32553941498949967581
 20
-46.91927201479299469611
 11
-19.00118396758711014627
 21
-42.11156324741543244272
  0
LINE
  8
Valley
 62
5
 10
-19.00134295939410478127
 20
-42.11701542529125674719
 11
-19.99220264337655805775
 21
-28.84145433021717863653
  0
LINE
  8
Valley
 62
5
 10
-1.337508326876257314098
 20
-73.46307560370533451533
 11
2.988587046902881461108
 21
-68.65621242481591934848
  0
LINE
  8
Valley
 62
5
 10
2.999451864128150013755
 20
-68.6623901483396821277
 11
1.999271427373799703275
 21
-55.38744586959435167728
  0
LINE
  8
Valley
 62
5
 10
-3.330870987060252197409
 20
-27.69626722830303933165
 11
0.9951174408006404625837
 21
-22.89058683607730415588
  0
LINE
  8
Valley
 62
5
 10
0.9951174408006404625837
 20
-22.89058683607730415588
 11
0.003866302130423715510688
 21
-9.614782728804691203095
  0
LINE
  8
Valley
 62
5
 10
18.6590548282270312086
 20
-54.23127106838394695387
 11
22.98191951725495130177
 21
-49.42192144744862503103
  0
LINE
  8
Valley
 62
5
 10
22.98191951725495130177
 20
-49.42192144744862503103
 11
21.98335792818082268241
 21
-36.14731833152541184973
  0
LINE
  8
Mountain
 62
1
 10
-23.32553941498949967581
 20
-46.91927201479299469611
 11
-24.32122750394713506239
 21
-33.64391608036746106336
  0
LINE
  8
Mountain
 62
1
 10
-1.337508326876257314098
 20
-73.46307560370533451533
 11
-2.329611248029777925694
 21
-60.18667480966342964166
  0
LINE
  8
Mountain
 62
1
 10
-4.322635642130334687749
 20
-14.42129232360717594474
 11
-9.994673221303628452006
 21
-19.22755431537696679811
  0
LINE
  8
Mountain
 62
1
 10
-3.330870987060252197409
 20
-27.69626722830303933165
 11
-4.322635642130334687749
 21
-14.42129232360717594474
  0
LINE
  8
Mountain
 62
1
 10
17.65968582867925817936
 20
-40.95551190941645103294
 11
11.98993101342110989549
 21
-45.76680115249508418174
  0
LINE
  8
Mountain
 62
1
 10
18.6590548282270312086
 20
-54.23127106838394695387
 11
17.65968582867925817936
 21
-40.95551190941645103294
  0
LINE
  8
Mountain
 62
1
 10
-28.99695867813037963856
 20
-51.72744850088037082969
 11
-23.32553941498949967581
 21
-46.91927201479299469611
  0
LINE
  8
Mountain
 62
1
 10
-7.001634821331721880711
 20
-78.28119772923109564999
 11
-1.331161347168690056719
 21
-73.47316156265924291802
  0
LINE
  8
Mountain
 62
1
 10
-3.324873496977084563753
 20
-37.31005819706152948356
 11
0.9997618207578202742525
 21
-32.50311474430412772563
  0
LINE
  8
Valley
 62
5
 10
0.9997618207578202742525
 20
-32.50311474430412772563
 11
-9.000211962182593339321
 21
-32.50656599077861130809
  0
LINE
  8
Mountain
 62
1
 10
18.66112834772184925214
 20
-63.84682793711348125498
 11
22.98508195359530148494
 21
-59.039617888715945071
  0
LINE
  8
Valley
 62
5
 10
22.98508195359530148494
 20
-59.039617888715945071
 11
12.98590235460702224657
 21
-59.04274632759318564013
  0
LINE
  8
Mountain
 62
1
 10
16.66721305152926646542
 20
-18.07889972916146348325
 11
20.99150064619211875083
 21
-13.27117317933618245718
  0
LINE
  8
Mountain
 62
1
 10
38.65456125693626887596
 20
-44.61674739865121352977
 11
42.97849327693747767398
 21
-39.80817954825116089523
  0
LINE
  8
Mountain
 62
1
 10
-3.324873496977084563753
 20
-37.31005819706152948356
 11
-9.000211962182593339321
 21
-32.50656599077861130809
  0
LINE
  8
Mountain
 62
1
 10
18.66112834772184925214
 20
-63.84682793711348125498
 11
12.98590235460702224657
 21
-59.04274632759318564013
  0
LINE
  8
Mountain
 62
1
 10
16.66721305152926646542
 20
-18.07889972916146348325
 11
10.99184583183540375728
 21
-13.27539690352701029497
  0
LINE
  8
Mountain
 62
1
 10
38.65456125693626887596
 20
-44.61674739865121352977
 11
32.97820725382806728021
 21
-39.81323136666546247397
  0
LINE
  8
Mountain
 62
1
 10
-8.997134377060426402295
 20
-42.11782811396732029152
 11
-3.324873496977084563753
 21
-37.31005819706152948356
  0
LINE
  8
Valley
 62
5
 10
-3.324873496977084563753
 20
-37.31005819706152948356
 11
-13.3251062575640535357
 21
-37.31357620115139184236
  0
LINE
  8
Mountain
 62
1
 10
12.98824025189571784722
 20
-68.65425136849694354169
 11
18.66112834772184925214
 21
-63.84682793711348125498
  0
LINE
  8
Valley
 62
5
 10
18.66112834772184925214
 20
-63.84682793711348125498
 11
8.660448411177695149377
 21
-63.84952908876818611361
  0
LINE
  8
Mountain
 62
1
 10
10.99617500684006188294
 20
-22.88758866561859406374
 11
16.66721305152926646542
 21
-18.07889972916146348325
  0
LINE
  8
Valley
 62
5
 10
16.66721305152926646542
 20
-18.07889972916146348325
 11
6.667826824660521900512
 21
-18.08340302969386925724
  0
LINE
  8
Mountain
 62
1
 10
32.98354867635566733952
 20
-49.42456229103430587202
 11
38.65456125693626887596
 21
-44.61674739865121352977
  0
LINE
  8
Valley
 62
5
 10
38.65456125693626887596
 20
-44.61674739865121352977
 11
28.65488064425153780235
 21
-44.62058135390056179403
  0
LINE
  8
Valley
 62
5
 10
-13.32133363887570709494
 20
-46.92567813805982268605
 11
-8.997134377060426402295
 21
-42.11782811396732029152
  0
LINE
  8
Mountain
 62
1
 10
-8.997134377060426402295
 20
-42.11782811396732029152
 11
-18.9967197980071844654
 21
-42.12201723740378156435
  0
LINE
  8
Valley
 62
5
 10
8.662592679591758937363
 20
-73.46077592259948119136
 11
12.98824025189571784722
 21
-68.65425136849694354169
  0
LINE
  8
Mountain
 62
1
 10
12.98824025189571784722
 20
-68.65425136849694354169
 11
2.988587046902881461108
 21
-68.65621242481591934848
  0
LINE
  8
Valley
 62
5
 10
6.671462834714684930759
 20
-27.69552705375001977472
 11
10.99617500684006188294
 21
-22.88758866561859406374
  0
LINE
  8
Mountain
 62
1
 10
10.99617500684006188294
 20
-22.88758866561859406374
 11
0.9964181008832446728718
 21
-22.8921212570336791714
  0
LINE
  8
Valley
 62
5
 10
28.65791590185734705187
 20
-54.23196648781068773815
 11
32.98354867635566733952
 21
-49.42456229103430587202
  0
LINE
  8
Mountain
 62
1
 10
32.98354867635566733952
 20
-49.42456229103430587202
 11
22.98325709478485734394
 21
-49.42835706478713575507
  0
LINE
  8
Valley
 62
5
 10
-13.32525473816260053184
 20
-46.91458245269841142999
 11
-19.00118396758711014627
 21
-42.11156324741543244272
  0
LINE
  8
Valley
 62
5
 10
8.662592679591758937363
 20
-73.46077592259948119136
 11
2.988587046902881461108
 21
-68.65621242481591934848
  0
LINE
  8
Valley
 62
5
 10
6.671462834714684930759
 20
-27.69552705375001977472
 11
0.9964181008832446728718
 21
-22.8921212570336791714
  0
LINE
  8
Valley
 62
5
 10
28.65791590185734705187
 20
-54.23196648781068773815
 11
22.98325709478485734394
 21
-49.42835706478713575507
  0
LINE
  8
Valley
 62
5
 10
-18.99650493422742059124
 20
-51.72165975266639748043
 11
-13.32525473816260053184
 21
-46.91458245269841142999
  0
LINE
  8
Mountain
 62
1
 10
-13.32525473816260053184
 20
-46.91458245269841142999
 11
-23.32553941498949967581
 21
-46.91927201479299469611
  0
LINE
  8
Valley
 62
5
 10
2.997956019259423676715
 20
-78.27641816535412999656
 11
8.668938244531059211795
 21
-73.46736637652929857722
  0
LINE
  8
Mountain
 62
1
 10
8.668938244531059211795
 20
-73.46736637652929857722
 11
-1.331161347168690056719
 21
-73.47316156265924291802
  0
LINE
  8
Mountain
 62
1
 10
-3.328220619060607177175
 20
-27.6990162893983011827
 11
-9.000211962182593339321
 21
-32.50656599077861130809
  0
LINE
  8
Mountain
 62
1
 10
6.671462834714684930759
 20
-27.69552705375001977472
 11
-3.328220619060607177175
 21
-27.6990162893983011827
  0
LINE
  8
Mountain
 62
1
 10
18.65741971878010829755
 20
-54.23503303601668790179
 11
12.98590235460702224657
 21
-59.04274632759318564013
  0
LINE
  8
Mountain
 62
1
 10
28.65791590185734705187
 20
-54.23196648781068773815
 11
18.65741971878010829755
 21
-54.23503303601668790179
  0
LINE
  8
Mountain
 62
1
 10
-3.326009953059401169639
 20
-37.3087193458934294199
 11
-2.332493903492693920754
 21
-50.58473525743256971055
  0
LINE
  8
Valley
 62
5
 10
-2.332493903492693920754
 20
-50.58473525743256971055
 11
1.992523379117597137622
 21
-45.77702700936394109021
  0
LINE
  8
Valley
 62
5
 10
23.9831248931205429642
 20
-72.31662973962014007157
 11
22.98745648643108552278
 21
-59.04219473560748809859
  0
LINE
  8
Mountain
 62
1
 10
16.66721305152926646542
 20
-18.07889972916146348325
 11
17.66003380301294711785
 21
-31.35448141224527418558
  0
LINE
  8
Valley
 62
5
 10
17.66003380301294711785
 20
-31.35448141224527418558
 11
21.98495489484563236715
 21
-26.54706041064173405175
  0
LINE
  8
Mountain
 62
1
 10
19.66001610105331920408
 20
-77.12601491845475720766
 11
18.66434778873772160068
 21
-63.85016462144167093129
  0
LINE
  8
Mountain
 62
1
 10
39.64896276368637728638
 20
-57.89184022253621719756
 11
38.65456125693626887596
 21
-44.61674739865121352977
  0
LINE
  8
Mountain
 62
1
 10
-8.00086160191679418574
 20
-55.39346669848374915546
 11
-2.329997131156621659187
 21
-50.58476221031173736264
  0
LINE
  8
Mountain
 62
1
 10
-8.997134377060426402295
 20
-42.11782811396732029152
 11
-8.00086160191679418574
 21
-55.39346669848374915546
  0
LINE
  8
Mountain
 62
1
 10
11.98809845583237709832
 20
-36.16185182785915230852
 11
17.66003380301294711785
 21
-31.35448141224527418558
  0
LINE
  8
Mountain
 62
1
 10
10.99493977017453261169
 20
-22.88613153276182998752
 11
11.98809845583237709832
 21
-36.16185182785915230852
  0
LINE
  8
Valley
 62
5
 10
-13.32525473816260053184
 20
-46.91458245269841142999
 11
-12.33017730389572186311
 21
-60.19029365798516550967
  0
LINE
  8
Mountain
 62
1
 10
-12.33017730389572186311
 20
-60.19029365798516550967
 11
-8.0056723576771720019
 21
-55.38292993596436986081
  0
LINE
  8
Mountain
 62
1
 10
13.99015334138722721491
 20
-81.93449273883817340902
 11
12.99303597321295100642
 21
-68.65944748767752514595
  0
LINE
  8
Valley
 62
5
 10
6.669738262473670964425
 20
-27.69362972138129208588
 11
7.664141146705790497151
 21
-40.96854312436830980459
  0
LINE
  8
Mountain
 62
1
 10
7.664141146705790497151
 20
-40.96854312436830980459
 11
11.98809845583237709832
 21
-36.16185182785915230852
  0
LINE
  8
Mountain
 62
1
 10
33.97797652760449693687
 20
-62.70071056172991319499
 11
32.98343773986850635538
 21
-49.42443143388949522432
  0
LINE
  8
Valley
 62
5
 10
9.665999200133400748314
 20
-86.74254976937621108846
 11
8.668938244531059211795
 21
-73.46736637652929857722
  0
LINE
  8
Valley
 62
5
 10
6.669738262473670964425
 20
-27.69362972138129208588
 11
0.9981422944483218095968
 21
-32.50134133602347219494
  0
LINE
  8
Valley
 62
5
 10
28.65860526215928416605
 20
-54.23255560561683807919
 11
22.98745648643108552278
 21
-59.04219473560748809859
  0
LINE
  8
Valley
 62
5
 10
29.65380227120971312615
 20
-67.50866530058857506447
 11
28.65860526215928416605
 21
-54.23255560561683807919
  0
LINE
  8
Valley
 62
5
 10
-18.00221246356059978666
 20
-64.9978460806080988732
 11
-12.33017730389572186311
 21
-60.19029365798516550967
  0
LINE
  8
Valley
 62
5
 10
0.9981422944483218095968
 20
-32.50134133602347219494
 11
1.992523379117597137622
 21
-45.77702700936394109021
  0
POLYLINE
  8
Outline
 70
1
 62
3
 10
0
 20
0
  0
VERTEX
 10
10.00019920974523657264
 20
0
  0
VERTEX
 10
0
 20
0
  0
VERTEX
 10
-4.326624434424076071082
 20
-4.804569400827470637694
  0
VERTEX
 10
-10.00028382065404386481
 20
-9.610998051121896423865
  0
VERTEX
 10
-14.32628583560071966474
 20
-14.41757850998411960575
  0
VERTEX
 10
-19.99841856895199754263
 20
-19.22521222307624100267
  0
VERTEX
 10
-24.32357871993153253243
 20
-24.03246763908492411588
  0
VERTEX
 10
-29.99483234160837952231
 20
-28.84015361733618476592
  0
VERTEX
 10
-34.3201699065409897571
 20
-33.6475418041005909231
  0
VERTEX
 10
-39.99213606228352801963
 20
-38.45382809485498398772
  0
VERTEX
 10
-29.99172965560609682711
 20
-38.45178134558258875586
  0
VERTEX
 10
-28.99695867813037963856
 20
-51.72744850088037082969
  0
VERTEX
 10
-18.99650493422742059124
 20
-51.72165975266639748043
  0
VERTEX
 10
-18.00221246356059978666
 20
-64.9978460806080988732
  0
VERTEX
 10
-7.995850394226683199861
 20
-65.00473210881516195059
  0
VERTEX
 10
-7.001634821331721880711
 20
-78.28119772923109564999
  0
VERTEX
 10
2.997956019259423676715
 20
-78.27641816535412999656
  0
VERTEX
 10
3.996242101576246152916
 20
-91.55193577484658362664
  0
VERTEX
 10
9.665999200133400748314
 20
-86.74254976937621108846
  0
VERTEX
 10
13.99015334138722721491
 20
-81.93449273883817340902
  0
VERTEX
 10
19.66001610105331920408
 20
-77.12601491845475720766
  0
VERTEX
 10
23.9831248931205429642
 20
-72.31662973962014007157
  0
VERTEX
 10
29.65380227120971312615
 20
-67.50866530058857506447
  0
VERTEX
 10
33.97797652760449693687
 20
-62.70071056172991319499
  0
VERTEX
 10
39.64896276368637728638
 20
-57.89184022253621719756
  0
VERTEX
 10
43.97295952651729322724
 20
-53.08408293964799895548
  0
VERTEX
 10
42.97849327693747767398
 20
-39.80817954825116089523
  0
VERTEX
 10
32.97820725382806728021
 20
-39.81323136666546247397
  0
VERTEX
 10
31.98334432329959398089
 20
-26.53688558575846556664
  0
VERTEX
 10
21.98364749576807142262
 20
-26.54320645656359189957
  0
VERTEX
 10
20.99150064619211875083
 20
-13.27117317933618245718
  0
VERTEX
 10
10.99184583183540375728
 20
-13.27539690352701029497
  0
SEQEND
  0
ENDSEC
  0
EOF
