  0
SECTION
  2
HEADER
  9
$ACADVER
  1
AC1006
  0
ENDSEC
  0
SECTION
  2
TABLES
  0
TABLE
  2
LAYER
 70
5
  0
LAYER
  2
Crease
 62
0
  0
LAYER
  2
Outline
 62
3
  0
LAYER
  2
Mountain
 62
1
  0
LAYER
  2
Valley
 62
5
  0
LAYER
  2
Triangulation
 62
7
  0
ENDTAB
  0
ENDSEC
  0
SECTION
  2
ENTITIES
  0
LINE
  8
Valley
 62
5
 10
-17.31910353152373005514
 20
-40.82581427359410497502
 11
-11.54633607845196507924
 21
-32.66033270599963600489
  0
LINE
  8
Valley
 62
5
 10
17.29869792270215711483
 20
-57.16865043243073785106
 11
23.07259903825678648559
 21
-49.00397087508063975747
  0
LINE
  8
Valley
 62
5
 10
5.773503251771026967276
 20
-8.164965413385985470995
 11
11.54699985921052807214
 21
0
  0
LINE
  8
Valley
 62
5
 10
40.39431110336257546578
 20
-24.50992749939641157653
 11
46.16820948996710427537
 21
-16.34524612123241738004
  0
LINE
  8
Mountain
 62
1
 10
-28.8661031754789192405
 20
-40.82684543593029502517
 11
-17.31910353152373005514
 21
-40.82581427359410497502
  0
LINE
  8
Valley
 62
5
 10
-17.31910353152373005514
 20
-40.82581427359410497502
 11
-23.09333565965169299261
 21
-32.66136412831714608274
  0
LINE
  8
Mountain
 62
1
 10
5.751699156431700821202
 20
-57.16808069915923340432
 11
17.29869792270215711483
 21
-57.16865043243073785106
  0
LINE
  8
Valley
 62
5
 10
17.29869792270215711483
 20
-57.16865043243073785106
 11
11.52559881764512184077
 21
-49.00339938486770563486
  0
LINE
  8
Mountain
 62
1
 10
-5.775022718908375374269
 20
-8.164919782708167872443
 11
5.771976890327237263989
 21
-8.163886240638040803219
  0
LINE
  8
Valley
 62
5
 10
5.771976890327237263989
 20
-8.163886240638040803219
 11
-0.002256395072897987574834
 21
0.0005629119856163100621416
  0
LINE
  8
Mountain
 62
1
 10
28.84731098170172458595
 20
-24.50935903288546313661
 11
40.39431110336257546578
 21
-24.50992749939641157653
  0
LINE
  8
Valley
 62
5
 10
40.39431110336257546578
 20
-24.50992749939641157653
 11
34.62120977885787453943
 21
-16.34467772472491731151
  0
LINE
  8
Valley
 62
5
 10
-23.09187710062552412182
 20
-48.99129560603471134073
 11
-17.31910353152373005514
 21
-40.82581427359410497502
  0
LINE
  8
Valley
 62
5
 10
11.52479327096630257188
 20
-65.33333139521188570598
 11
17.29869792270215711483
 21
-57.16865043243073785106
  0
LINE
  8
Valley
 62
5
 10
-0.0007954887524261877729259
 20
-16.32936926996311655103
 11
5.771976890327237263989
 21
-8.163886240638040803219
  0
LINE
  8
Valley
 62
5
 10
34.62040578912263555367
 20
-32.67460898436846861159
 11
40.39431110336257546578
 21
-24.50992749939641157653
  0
LINE
  8
Valley
 62
5
 10
-23.09187710062552412182
 20
-48.99129560603471134073
 11
-34.63887683380864501714
 21
-48.99232687331425495358
  0
LINE
  8
Mountain
 62
1
 10
-28.86464487249757837617
 20
-57.15677695442963113237
 11
-23.09187710062552412182
 21
-48.99129560603471134073
  0
LINE
  8
Valley
 62
5
 10
11.52732183102259000407
 20
-65.33408608985664045576
 11
-0.01967815264533179231421
 21
-65.33454947405397206239
  0
LINE
  8
Mountain
 62
1
 10
5.75415286927526725691
 20
-73.49928328463789739544
 11
11.52732183102259000407
 21
-65.33408608985664045576
  0
LINE
  8
Valley
 62
5
 10
-0.0007954887524261877729259
 20
-16.32936926996311655103
 11
-11.54779506354114460009
 21
-16.33040151351406876756
  0
LINE
  8
Mountain
 62
1
 10
-5.773562216615383491103
 20
-24.49485127993444066874
 11
-0.0007954887524261877729259
 21
-16.32936926996311655103
  0
LINE
  8
Valley
 62
5
 10
34.62040578912263555367
 20
-32.67460898436846861159
 11
23.07340678601761396749
 21
-32.67403947082217285924
  0
LINE
  8
Mountain
 62
1
 10
28.84650603548604408388
 20
-40.83929036272899537607
 11
34.62040578912263555367
 21
-32.67460898436846861159
  0
LINE
  8
Valley
 62
5
 10
-40.41164460400064939449
 20
-57.15780821763769381505
 11
-28.86464487249757837617
 21
-57.15677695442963113237
  0
LINE
  8
Mountain
 62
1
 10
-28.86464487249757837617
 20
-57.15677695442963113237
 11
-34.63887683380864501714
 21
-48.99232687331425495358
  0
LINE
  8
Valley
 62
5
 10
-5.796441772933462743822
 20
-73.49767643288886631581
 11
5.750558312459776999503
 21
-73.4982471690172047829
  0
LINE
  8
Mountain
 62
1
 10
5.750558312459776999503
 20
-73.4982471690172047829
 11
-0.02254120532955239397666
 21
-65.33299611194091482957
  0
LINE
  8
Valley
 62
5
 10
-17.32056238253545643602
 20
-24.49588305314638603249
 11
-5.773562216615383491103
 21
-24.49485127993444066874
  0
LINE
  8
Mountain
 62
1
 10
-5.773562216615383491103
 20
-24.49485127993444066874
 11
-11.54779506354114460009
 21
-16.33040151351406876756
  0
LINE
  8
Valley
 62
5
 10
17.29950599308619985095
 20
-40.83871946378731365712
 11
28.84650603548604408388
 21
-40.83929036272899537607
  0
LINE
  8
Mountain
 62
1
 10
28.84650603548604408388
 20
-40.83929036272899537607
 11
23.07340678601761396749
 21
-32.67403947082217285924
  0
LINE
  8
Mountain
 62
1
 10
-34.63741859556041902124
 20
-65.32225843471215398495
 11
-28.86464487249757837617
 21
-57.15677695442963113237
  0
LINE
  8
Mountain
 62
1
 10
-0.01861873127199098476581
 20
-81.66580568170901699432
 11
5.754154964260958848854
 21
-73.50032318034878642266
  0
LINE
  8
Mountain
 62
1
 10
-23.09333565965169299261
 20
-32.66136412831714608274
 11
-11.54633607845196507924
 21
-32.66033270599963600489
  0
LINE
  8
Valley
 62
5
 10
17.29950599308619985095
 20
-40.83871946378731365712
 11
11.52559881764512184077
 21
-49.00339938486770563486
  0
LINE
  8
Mountain
 62
1
 10
11.52559881764512184077
 20
-49.00339938486770563486
 11
23.07259903825678648559
 21
-49.00397087508063975747
  0
LINE
  8
Mountain
 62
1
 10
-5.782809503551349372685
 20
-40.83393443904866870753
 11
-11.54521002473206081618
 21
-32.66112885778760244193
  0
LINE
  8
Mountain
 62
1
 10
-11.55630584829749807341
 20
-48.99890061922753403678
 11
-5.782809503551349372685
 21
-40.83393443904866870753
  0
LINE
  8
Mountain
 62
1
 10
28.83599346955625009059
 20
-57.1764468130938610102
 11
23.07359377824972312965
 21
-49.00364101408746364541
  0
LINE
  8
Mountain
 62
1
 10
23.06249643769086077327
 20
-65.34141328081491906232
 11
28.83599346955625009059
 21
-57.1764468130938610102
  0
LINE
  8
Mountain
 62
1
 10
11.53590395433976567574
 20
-16.33777223921392973693
 11
17.30939955377277783555
 21
-8.172805311914908443782
  0
LINE
  8
Mountain
 62
1
 10
46.15471037541406218452
 20
-32.68028790175300457577
 11
51.9282083494604620455
 21
-24.51532298348858773807
  0
LINE
  8
Valley
 62
5
 10
-11.55630584829749807341
 20
-48.99890061922753403678
 11
-17.31870572661657803337
 21
-40.82609552509806150056
  0
LINE
  8
Valley
 62
5
 10
-17.32907922039597892194
 20
-57.16438161325739741869
 11
-11.55630584829749807341
 21
-48.99890061922753403678
  0
LINE
  8
Valley
 62
5
 10
23.06249643769086077327
 20
-65.34141328081491906232
 11
17.30009736104468842655
 21
-57.16860675112116041419
  0
LINE
  8
Valley
 62
5
 10
17.28971839824777134709
 20
-73.50689223009163697498
 11
23.06249643769086077327
 21
-65.34141328081491906232
  0
LINE
  8
Valley
 62
5
 10
11.53590395433976567574
 20
-16.33777223921392973693
 11
5.773503251771026967276
 21
-8.164965413385985470995
  0
LINE
  8
Valley
 62
5
 10
5.763130308625185271865
 20
-24.50325285060209878907
 11
11.53590395433976567574
 21
-16.33777223921392973693
  0
LINE
  8
Valley
 62
5
 10
46.15471037541406218452
 20
-32.68028790175300457577
 11
40.39231197532159711727
 21
-24.50748071690604135142
  0
LINE
  8
Valley
 62
5
 10
40.38193501298262333421
 20
-40.84576687414439533086
 11
46.15471037541406218452
 21
-32.68028790175300457577
  0
LINE
  8
Valley
 62
5
 10
-17.32907922039597892194
 20
-57.16438161325739741869
 11
-23.0914794875488382786
 21
-48.99157672191973489362
  0
LINE
  8
Valley
 62
5
 10
-23.10224463317601717449
 20
-65.32958186596474092767
 11
-17.32907922039597892194
 21
-57.16438161325739741869
  0
LINE
  8
Valley
 62
5
 10
17.28971839824777134709
 20
-73.50689223009163697498
 11
11.52732183102259000407
 21
-65.33408608985664045576
  0
LINE
  8
Valley
 62
5
 10
11.51655007607770997424
 20
-81.67209129809151590962
 11
17.28971839824777134709
 21
-73.50689223009163697498
  0
LINE
  8
Valley
 62
5
 10
5.763130308625185271865
 20
-24.50325285060209878907
 11
0.0007301171766549430230953
 21
-16.3304479085828440077
  0
LINE
  8
Valley
 62
5
 10
-0.01003554864095823617731
 20
-32.66845269784978000871
 11
5.763130308625185271865
 21
-24.50325285060209878907
  0
LINE
  8
Valley
 62
5
 10
40.38193501298262333421
 20
-40.84576687414439533086
 11
34.61953557556969229836
 21
-32.67296043136991556821
  0
LINE
  8
Valley
 62
5
 10
34.60876871866652493281
 20
-49.01096618738771582002
 11
40.38193501298262333421
 21
-40.84576687414439533086
  0
LINE
  8
Mountain
 62
1
 10
-23.10224463317601717449
 20
-65.32958186596474092767
 11
-28.86464487249757837617
 21
-57.15677695442963113237
  0
LINE
  8
Mountain
 62
1
 10
-28.87501839415532245425
 20
-73.49506388652437749442
 11
-23.10224463317601717449
 21
-65.32958186596474092767
  0
LINE
  8
Mountain
 62
1
 10
11.51655560041825943074
 20
-81.67312877586802244423
 11
5.754154964260958848854
 21
-73.50032318034878642266
  0
LINE
  8
Mountain
 62
1
 10
5.74378228938198720499
 20
-89.8386103284907875377
 11
11.51655560041825943074
 21
-81.67312877586802244423
  0
LINE
  8
Mountain
 62
1
 10
-0.01003554864095823617731
 20
-32.66845269784978000871
 11
-5.7724356944894665844
 21
-24.49564776287277467759
  0
LINE
  8
Mountain
 62
1
 10
-5.7724356944894665844
 20
-24.49564776287277467759
 11
-11.54521002473206081618
 21
-32.66112885778760244193
  0
LINE
  8
Mountain
 62
1
 10
34.60876871866652493281
 20
-49.01096618738771582002
 11
28.84636929611582445432
 21
-40.83816045861778576409
  0
LINE
  8
Mountain
 62
1
 10
28.84636929611582445432
 20
-40.83816045861778576409
 11
23.07359377824972312965
 21
-49.00364101408746364541
  0
LINE
  8
Valley
 62
5
 10
5.763600410808920493366
 20
-40.83031025014167880727
 11
-5.783399694149281344835
 21
-40.82974059059499438717
  0
LINE
  8
Mountain
 62
1
 10
-0.01029939284079040007214
 20
-48.99499104523462733596
 11
5.763600410808920493366
 21
-40.83031025014167880727
  0
LINE
  8
Valley
 62
5
 10
40.38306410111354693981
 20
-57.17603650056035746729
 11
28.836065219336795451
 21
-57.17649751941307556535
  0
LINE
  8
Mountain
 62
1
 10
34.60989183435705740521
 20
-65.34123197299628316159
 11
40.38306410111354693981
 21
-57.17603650056035746729
  0
LINE
  8
Mountain
 62
1
 10
23.08531373813152853813
 20
-16.33626968120642430904
 11
28.85921321923004612131
 21
-8.171588159979194188054
  0
LINE
  8
Mountain
 62
1
 10
57.70171073412150519744
 20
-32.68028890332853109157
 11
63.47520862083037229695
 21
-24.51532381164060225842
  0
LINE
  8
Mountain
 62
1
 10
-0.01029939284079040007214
 20
-48.99499104523462733596
 11
-5.783399694149281344835
 21
-40.82974059059499438717
  0
LINE
  8
Mountain
 62
1
 10
34.60989183435705740521
 20
-65.34123197299628316159
 11
28.836065219336795451
 21
-57.17649751941307556535
  0
LINE
  8
Mountain
 62
1
 10
23.08531373813152853813
 20
-16.33626968120642430904
 11
17.31221411143282651324
 21
-8.171018935433060903506
  0
LINE
  8
Mountain
 62
1
 10
57.70171073412150519744
 20
-32.68028890332853109157
 11
51.9282083494604620455
 21
-24.51532298348858773807
  0
LINE
  8
Valley
 62
5
 10
-0.01029939284079040007214
 20
-48.99499104523462733596
 11
-11.55729964515361984922
 21
-48.99442136341482978423
  0
LINE
  8
Mountain
 62
1
 10
-5.784205895512371853329
 20
-57.1596722381944175595
 11
-0.01029939284079040007214
 21
-48.99499104523462733596
  0
LINE
  8
Valley
 62
5
 10
34.60989183435705740521
 20
-65.34123197299628316159
 11
23.06289396614211284486
 21
-65.34169433744841626321
  0
LINE
  8
Mountain
 62
1
 10
28.83671847741271676568
 20
-73.50642860952974899647
 11
34.60989183435705740521
 21
-65.34123197299628316159
  0
LINE
  8
Valley
 62
5
 10
23.08531373813152853813
 20
-16.33626968120642430904
 11
11.5383131883532019657
 21
-16.33569924093305303359
  0
LINE
  8
Mountain
 62
1
 10
17.31140649829905697743
 20
-24.50095029470871565991
 11
23.08531373813152853813
 21
-16.33626968120642430904
  0
LINE
  8
Valley
 62
5
 10
57.70258542294886439095
 20
-32.68044069567179121805
 11
46.15558507362857909584
 21
-32.68090630069085023024
  0
LINE
  8
Mountain
 62
1
 10
51.92941033958825869377
 20
-40.84564021027259173025
 11
57.70258542294886439095
 21
-32.68044069567179121805
  0
LINE
  8
Mountain
 62
1
 10
-5.784205895512371853329
 20
-57.1596722381944175595
 11
-17.33120538245247743703
 21
-57.15910168821993408983
  0
LINE
  8
Valley
 62
5
 10
-11.55810623902771894222
 20
-65.3243527697412815769
 11
-5.784205895512371853329
 21
-57.1596722381944175595
  0
LINE
  8
Mountain
 62
1
 10
28.83671847741271676568
 20
-73.50642860952974899647
 11
17.28971839824777134709
 21
-73.50689223009163697498
  0
LINE
  8
Valley
 62
5
 10
23.06354930575115602664
 20
-81.67162580117704351323
 11
28.83671847741271676568
 21
-73.50642860952974899647
  0
LINE
  8
Mountain
 62
1
 10
17.31140649829905697743
 20
-24.50095029470871565991
 11
5.764407080728560117677
 21
-24.50037911462974093979
  0
LINE
  8
Valley
 62
5
 10
11.53750515743499427401
 20
-32.66562987232607895294
 11
17.31140649829905697743
 21
-24.50095029470871565991
  0
LINE
  8
Mountain
 62
1
 10
51.92941033958825869377
 20
-40.84564021027259173025
 11
40.38241249566110724345
 21
-40.84610443782541722157
  0
LINE
  8
Valley
 62
5
 10
46.15624169688485523011
 20
-49.01083954454833246928
 11
51.92941033958825869377
 21
-40.84564021027259173025
  0
LINE
  8
Valley
 62
5
 10
-11.55810623902771894222
 20
-65.3243527697412815769
 11
-17.33120538245247743703
 21
-57.15910168821993408983
  0
LINE
  8
Valley
 62
5
 10
23.06354930575115602664
 20
-81.67162580117704351323
 11
17.28971839824777134709
 21
-73.50689223009163697498
  0
LINE
  8
Valley
 62
5
 10
11.53750515743499427401
 20
-32.66562987232607895294
 11
5.764407080728560117677
 21
-24.50037911462974093979
  0
LINE
  8
Valley
 62
5
 10
46.15624169688485523011
 20
-49.01083954454833246928
 11
40.38241249566110724345
 21
-40.84610443782541722157
  0
LINE
  8
Mountain
 62
1
 10
-11.55524521169205875992
 20
-65.32855066833496948675
 11
-23.10224463317601717449
 21
-65.32958186596474092767
  0
LINE
  8
Valley
 62
5
 10
-17.32801848335062899764
 20
-73.49403232844574063165
 11
-11.55524521169205875992
 21
-65.32855066833496948675
  0
LINE
  8
Mountain
 62
1
 10
23.06355479331337576809
 20
-81.67209628085261385877
 11
11.51655560041825943074
 21
-81.67312877586802244423
  0
LINE
  8
Valley
 62
5
 10
17.29078254437331452209
 20
-89.83757845405629893776
 11
23.06355479331337576809
 21
-81.67209628085261385877
  0
LINE
  8
Mountain
 62
1
 10
11.53750515743499427401
 20
-32.66562987232607895294
 11
-0.009493594714641950815803
 21
-32.66505936257048858806
  0
LINE
  8
Mountain
 62
1
 10
-0.009493594714641950815803
 20
-32.66505936257048858806
 11
-5.783399694149281344835
 21
-40.82974059059499438717
  0
LINE
  8
Mountain
 62
1
 10
46.15624169688485523011
 20
-49.01083954454833246928
 11
34.6092415939165078953
 21
-49.01130049340584093898
  0
LINE
  8
Mountain
 62
1
 10
34.6092415939165078953
 20
-49.01130049340584093898
 11
28.836065219336795451
 21
-57.17649751941307556535
  0
LINE
  8
Mountain
 62
1
 10
-0.008500735983575591347972
 20
-48.99626291233003883008
 11
5.753497064866959220808
 21
-57.16935203696856149236
  0
LINE
  8
Valley
 62
5
 10
5.753497064866959220808
 20
-57.16935203696856149236
 11
11.52739513304240404068
 21
-49.00466959611260620022
  0
LINE
  8
Valley
 62
5
 10
46.14539055538018885727
 20
-65.34925669035304451882
 11
40.38299027799844509445
 21
-57.17645092822478147809
  0
LINE
  8
Mountain
 62
1
 10
23.08531373813152853813
 20
-16.33626968120642430904
 11
28.84731098170172458595
 21
-24.50935903288546313661
  0
LINE
  8
Valley
 62
5
 10
28.84731098170172458595
 20
-24.50935903288546313661
 11
34.62120977885787453943
 21
-16.34467772472491731151
  0
LINE
  8
Mountain
 62
1
 10
-5.781676502423602315162
 20
-57.1614608189367174873
 11
-0.01967815264533179231421
 21
-65.33454947405397206239
  0
LINE
  8
Mountain
 62
1
 10
-0.01967815264533179231421
 20
-65.33454947405397206239
 11
5.753497064866959220808
 21
-57.16935203696856149236
  0
LINE
  8
Mountain
 62
1
 10
40.37189434095513007605
 20
-73.5142223042258251553
 11
34.60949423102213984293
 21
-65.34141746338481482326
  0
LINE
  8
Mountain
 62
1
 10
17.31213810894836058196
 20
-24.50146762671243294562
 11
23.07413681331933474894
 21
-32.67455568306402824419
  0
LINE
  8
Mountain
 62
1
 10
23.07413681331933474894
 20
-32.67455568306402824419
 11
28.84731098170172458595
 21
-24.50935903288546313661
  0
LINE
  8
Mountain
 62
1
 10
63.46410922027438772375
 20
-40.85309558209675628859
 11
57.70171073412150519744
 21
-32.68028890332853109157
  0
LINE
  8
Valley
 62
5
 10
-11.55810623902771894222
 20
-65.3243527697412815769
 11
-5.796441772933462743822
 21
-73.49767643288886631581
  0
LINE
  8
Mountain
 62
1
 10
-5.796441772933462743822
 20
-73.49767643288886631581
 11
-0.02254120532955239397666
 21
-65.33299611194091482957
  0
LINE
  8
Mountain
 62
1
 10
34.59912063845117558003
 20
-81.67970224382024468923
 11
28.83672095766598886257
 21
-73.50689696290071140083
  0
LINE
  8
Valley
 62
5
 10
11.53857170527282605121
 20
-32.66638405503813658015
 11
17.30057008945442476033
 21
-40.83947191283755273616
  0
LINE
  8
Mountain
 62
1
 10
17.30057008945442476033
 20
-40.83947191283755273616
 11
23.07413681331933474894
 21
-32.67455568306402824419
  0
LINE
  8
Mountain
 62
1
 10
57.69133104492915009587
 20
-49.01857697024304627575
 11
51.92893342762288710901
 21
-40.84576965010317906035
  0
LINE
  8
Valley
 62
5
 10
-11.56561795360678779332
 20
-81.66683687764050603164
 11
-5.792845089074613262881
 21
-73.50135569165958315807
  0
LINE
  8
Valley
 62
5
 10
28.82595567650187007303
 20
-89.84490281257906474366
 11
23.06355479331337576809
 21
-81.67209628085261385877
  0
LINE
  8
Valley
 62
5
 10
11.53857170527282605121
 20
-32.66638405503813658015
 11
5.765397439904219822893
 21
-40.8315809661165047828
  0
LINE
  8
Valley
 62
5
 10
5.765397439904219822893
 20
-40.8315809661165047828
 11
11.52739513304240404068
 21
-49.00466959611260620022
  0
LINE
  8
Valley
 62
5
 10
51.9181628755288286925
 20
-57.18377458540131641485
 11
46.15576499250352782155
 21
-49.01096913115030417885
  0
LINE
  8
Valley
 62
5
 10
46.15576499250352782155
 20
-49.01096913115030417885
 11
40.38299027799844509445
 21
-57.17645092822478147809
  0
POLYLINE
  8
Outline
 70
1
 62
3
 10
0
 20
0
  0
VERTEX
 10
11.54699985921052807214
 20
0
  0
VERTEX
 10
-0.002256395072897987574834
 20
0.0005629119856163100621416
  0
VERTEX
 10
-5.775022718908375374269
 20
-8.164919782708167872443
  0
VERTEX
 10
-11.54779506354114460009
 20
-16.33040151351406876756
  0
VERTEX
 10
-17.32056238253545643602
 20
-24.49588305314638603249
  0
VERTEX
 10
-23.09333565965169299261
 20
-32.66136412831714608274
  0
VERTEX
 10
-28.8661031754789192405
 20
-40.82684543593029502517
  0
VERTEX
 10
-34.63887683380864501714
 20
-48.99232687331425495358
  0
VERTEX
 10
-40.41164460400064939449
 20
-57.15780821763769381505
  0
VERTEX
 10
-46.18441823119221112393
 20
-65.32328960088452163291
  0
VERTEX
 10
-34.63741859556041902124
 20
-65.32225843471215398495
  0
VERTEX
 10
-28.87501839415532245425
 20
-73.49506388652437749442
  0
VERTEX
 10
-17.32801848335062899764
 20
-73.49403232844574063165
  0
VERTEX
 10
-11.56561795360678779332
 20
-81.66683687764050603164
  0
VERTEX
 10
-0.01861873127199098476581
 20
-81.66580568170901699432
  0
VERTEX
 10
5.74378228938198720499
 20
-89.8386103284907875377
  0
VERTEX
 10
17.29078254437331452209
 20
-89.83757845405629893776
  0
VERTEX
 10
23.05318066212649341651
 20
-98.01038189757539953462
  0
VERTEX
 10
28.82595567650187007303
 20
-89.84490281257906474366
  0
VERTEX
 10
34.59912063845117558003
 20
-81.67970224382024468923
  0
VERTEX
 10
40.37189434095513007605
 20
-73.5142223042258251553
  0
VERTEX
 10
46.14539055538018885727
 20
-65.34925669035304451882
  0
VERTEX
 10
51.9181628755288286925
 20
-57.18377458540131641485
  0
VERTEX
 10
57.69133104492915009587
 20
-49.01857697024304627575
  0
VERTEX
 10
63.46410922027438772375
 20
-40.85309558209675628859
  0
VERTEX
 10
69.23760681689513774018
 20
-32.68813072990529633444
  0
VERTEX
 10
63.47520862083037229695
 20
-24.51532381164060225842
  0
VERTEX
 10
51.93020707946980252245
 20
-24.51833490377496715951
  0
VERTEX
 10
46.16820948996710427537
 20
-16.34524612123241738004
  0
VERTEX
 10
34.62120977885787453943
 20
-16.34467772472491731151
  0
VERTEX
 10
28.85921321923004612131
 20
-8.171588159979194188054
  0
VERTEX
 10
17.30939955377277783555
 20
-8.172805311914908443782
  0
SEQEND
  0
ENDSEC
  0
EOF
