  0
SECTION
  2
HEADER
  9
$ACADVER
  1
AC1006
  0
ENDSEC
  0
SECTION
  2
TABLES
  0
TABLE
  2
LAYER
 70
5
  0
LAYER
  2
Crease
 62
0
  0
LAYER
  2
Outline
 62
3
  0
LAYER
  2
Mountain
 62
1
  0
LAYER
  2
Valley
 62
5
  0
LAYER
  2
Triangulation
 62
7
  0
ENDTAB
  0
ENDSEC
  0
SECTION
  2
ENTITIES
  0
LINE
  8
Valley
 62
5
 10
-14.99998343026537916955
 20
-43.30124644174549075615
 11
-9.999994900689481269751
 21
-34.64099679572849765918
  0
LINE
  8
Valley
 62
5
 10
22.31639205214531429533
 20
-53.30048437523439019969
 11
27.31513494173043099522
 21
-44.63951586837318075141
  0
LINE
  8
Valley
 62
5
 10
5.000010570487497751913
 20
-8.660249036175668990722
 11
10.00000050506511506399
 21
0
  0
LINE
  8
Valley
 62
5
 10
42.31140258646996699099
 20
-18.65661111727268561822
 11
47.31014698529722295461
 21
-9.995643647024134992307
  0
LINE
  8
Mountain
 62
1
 10
-24.99998305826353828252
 20
-43.30124779980817351088
 11
-14.99998343026537916955
 21
-43.30124644174549075615
  0
LINE
  8
Mountain
 62
1
 10
-14.99998343026537916955
 20
-43.30124644174549075615
 11
-19.99999465444191315555
 21
-34.64099806557208438562
  0
LINE
  8
Mountain
 62
1
 10
12.31639226178454116223
 20
-53.30192425188019456073
 11
22.31639205214531429533
 21
-53.30048437523439019969
  0
LINE
  8
Mountain
 62
1
 10
22.31639205214531429533
 20
-53.30048437523439019969
 11
17.31513519595305439225
 21
-44.64095574744645489318
  0
LINE
  8
Mountain
 62
1
 10
-4.999988865775925717116
 20
-8.660249334325367698284
 11
5.000010570487497751913
 21
-8.660249036175668990722
  0
LINE
  8
Mountain
 62
1
 10
5.000010570487497751913
 20
-8.660249036175668990722
 11
0
 21
0
  0
LINE
  8
Mountain
 62
1
 10
32.31140257201880672255
 20
-18.65805040589285113128
 11
42.31140258646996699099
 21
-18.65661111727268561822
  0
LINE
  8
Mountain
 62
1
 10
42.31140258646996699099
 20
-18.65661111727268561822
 11
37.31014667033004883478
 21
-9.997082717936134343972
  0
LINE
  8
Valley
 62
5
 10
-19.9999914477838132143
 20
-51.96149677352542539666
 11
-14.99998343026537916955
 21
-43.30124644174549075615
  0
LINE
  8
Valley
 62
5
 10
17.31763112520529901417
 20
-61.96145316032085048619
 11
22.31639205214531429533
 21
-53.30048437523439019969
  0
LINE
  8
Valley
 62
5
 10
3.800345619531242391531e-06
 20
-17.32049921065286923749
 11
5.000010570487497751913
 21
-8.660249036175668990722
  0
LINE
  8
Valley
 62
5
 10
37.31264064552247816664
 20
-27.31757964716179287734
 11
42.31140258646996699099
 21
-18.65661111727268561822
  0
LINE
  8
Valley
 62
5
 10
-19.9999914477838132143
 20
-51.96149677352542539666
 11
-29.99999155273889783757
 21
-51.96149636905272473086
  0
LINE
  8
Mountain
 62
1
 10
-24.99998323504361508185
 20
-60.62174599431763510893
 11
-19.9999914477838132143
 21
-51.96149677352542539666
  0
LINE
  8
Valley
 62
5
 10
17.31763112520529901417
 20
-61.96145316032085048619
 11
7.317630770066656964445
 21
-61.96289305937594349416
  0
LINE
  8
Mountain
 62
1
 10
12.31888750901149975903
 20
-70.62242082602452342144
 11
17.31763112520529901417
 21
-61.96145316032085048619
  0
LINE
  8
Valley
 62
5
 10
3.800345619531242391531e-06
 20
-17.32049921065286923749
 11
-9.999996040389460105757
 21
-17.3204995439607642993
  0
LINE
  8
Mountain
 62
1
 10
-4.999987998389734400462
 20
-25.98074842763369218801
 11
3.800345619531242391531e-06
 21
-17.32049921065286923749
  0
LINE
  8
Valley
 62
5
 10
37.31264064552247816664
 20
-27.31757964716179287734
 11
27.3126398368054381649
 21
-27.31901892373227980215
  0
LINE
  8
Mountain
 62
1
 10
32.31389699611143129232
 20
-35.97854728192675821674
 11
37.31264064552247816664
 21
-27.31757964716179287734
  0
LINE
  8
Valley
 62
5
 10
-34.9999833401222701923
 20
-60.62174479798628823346
 11
-24.99998323504361508185
 21
-60.62174599431763510893
  0
LINE
  8
Valley
 62
5
 10
-24.99998323504361508185
 20
-60.62174599431763510893
 11
-29.99999155273889783757
 21
-51.96149636905272473086
  0
LINE
  8
Valley
 62
5
 10
2.318887278753700265099
 20
-70.62386116747087783097
 11
12.31888750901149975903
 21
-70.62242082602452342144
  0
LINE
  8
Valley
 62
5
 10
12.31888750901149975903
 20
-70.62242082602452342144
 11
7.317630770066656964445
 21
-61.96289305937594349416
  0
LINE
  8
Valley
 62
5
 10
-14.99998745811106459769
 20
-25.98074848036326045531
 11
-4.999987998389734400462
 21
-25.98074842763369218801
  0
LINE
  8
Valley
 62
5
 10
-4.999987998389734400462
 20
-25.98074842763369218801
 11
-9.999996040389460105757
 21
-17.3204995439607642993
  0
LINE
  8
Valley
 62
5
 10
22.31389644008071115877
 20
-35.9799867020758128433
 11
32.31389699611143129232
 21
-35.97854728192675821674
  0
LINE
  8
Valley
 62
5
 10
32.31389699611143129232
 20
-35.97854728192675821674
 11
27.3126398368054381649
 21
-27.31901892373227980215
  0
LINE
  8
Mountain
 62
1
 10
-29.99999148877406085489
 20
-69.28199311548873140509
 11
-24.99998323504361508185
 21
-60.62174599431763510893
  0
LINE
  8
Mountain
 62
1
 10
7.320759501901352273023
 20
-79.28385801433027779694
 11
12.31943978235185355175
 21
-70.62284267186407760164
  0
LINE
  8
Mountain
 62
1
 10
-19.99999465444191315555
 20
-34.64099806557208438562
 11
-9.999994900689481269751
 21
-34.64099679572849765918
  0
LINE
  8
Valley
 62
5
 10
22.31389644008071115877
 20
-35.9799867020758128433
 11
17.31513519595305439225
 21
-44.64095574744645489318
  0
LINE
  8
Mountain
 62
1
 10
17.31513519595305439225
 20
-44.64095574744645489318
 11
27.31513494173043099522
 21
-44.63951586837318075141
  0
LINE
  8
Mountain
 62
1
 10
-1.344791177640404455929
 20
-39.64204936733058559639
 11
-10.00476910795179108504
 21
-34.64155006042203410743
  0
LINE
  8
Mountain
 62
1
 10
-6.343625046297633574
 20
-48.30296592524628351839
 11
-1.344791177640404455929
 21
-39.64204936733058559639
  0
LINE
  8
Mountain
 62
1
 10
35.97493501510950153488
 20
-49.63990398183962327039
 11
27.31490989255792456447
 21
-44.63948911480503056737
  0
LINE
  8
Mountain
 62
1
 10
30.97618408825214331159
 20
-58.30086756571293449269
 11
35.97493501510950153488
 21
-49.63990398183962327039
  0
LINE
  8
Mountain
 62
1
 10
13.65085988151399476465
 20
-13.65878687834500126996
 11
18.6496933675224028093
 21
-4.997871006552509598464
  0
LINE
  8
Mountain
 62
1
 10
50.971430412977078106
 20
-23.65702047651194561695
 11
55.97017642996243580455
 21
-14.99605509807125969246
  0
LINE
  8
Valley
 62
5
 10
-6.343625046297633574
 20
-48.30296592524628351839
 11
-15.00360422314281727552
 21
-43.30246552695102479902
  0
LINE
  8
Valley
 62
5
 10
30.97618408825214331159
 20
-58.30086756571293449269
 11
22.31615934958121272302
 21
-53.3004532044494112597
  0
LINE
  8
Valley
 62
5
 10
13.65085988151399476465
 20
-13.65878687834500126996
 11
4.990880231134302569274
 21
-8.658287791846117187333
  0
LINE
  8
Valley
 62
5
 10
50.97033201445749739378
 20
-23.65649818136951409997
 11
42.31030786053759129572
 21
-18.65608246171489525977
  0
LINE
  8
Valley
 62
5
 10
-11.34238339490571867429
 20
-56.96393866199575484188
 11
-6.343625046297633574
 21
-48.30296592524628351839
  0
LINE
  8
Valley
 62
5
 10
25.97750064671307512754
 20
-66.96188094645324895282
 11
30.97618408825214331159
 21
-58.30086756571293449269
  0
LINE
  8
Valley
 62
5
 10
8.652101917499086525254
 20
-22.31975880517702393036
 11
13.65085988151399476465
 21
-13.65878687834500126996
  0
LINE
  8
Valley
 62
5
 10
45.97165010688876662925
 20
-32.31751043208814166974
 11
50.97033201445749739378
 21
-23.65649818136951409997
  0
LINE
  8
Valley
 62
5
 10
-11.34238339490571867429
 20
-56.96393866199575484188
 11
-20.00235373757698909003
 21
-51.96344233538823687013
  0
LINE
  8
Valley
 62
5
 10
-16.34072745430581363735
 20
-65.62347475551581510445
 11
-11.34136316607373373699
 21
-56.96286507844810387269
  0
LINE
  8
Valley
 62
5
 10
25.97750064671307512754
 20
-66.96188094645324895282
 11
17.31748225268773921925
 21
-61.96147037230775822536
  0
LINE
  8
Valley
 62
5
 10
20.9794578594554117501
 20
-75.62325405539749567652
 11
25.97750064671307512754
 21
-66.96188094645324895282
  0
LINE
  8
Valley
 62
5
 10
8.652101917499086525254
 20
-22.31975880517702393036
 11
-0.007868845450441419586696
 21
-17.3192639755877735297
  0
LINE
  8
Valley
 62
5
 10
3.653974355866195899978
 20
-30.98108243714715115402
 11
8.652101917499086525254
 21
-22.31975880517702393036
  0
LINE
  8
Valley
 62
5
 10
45.97165010688876662925
 20
-32.31751043208814166974
 11
37.3116317554695342551
 21
-27.31710053204682253636
  0
LINE
  8
Valley
 62
5
 10
40.97360801759421633506
 20
-40.97888412496106980143
 11
45.97165010688876662925
 21
-32.31751043208814166974
  0
LINE
  8
Mountain
 62
1
 10
-16.34072745430581363735
 20
-65.62347475551581510445
 11
-24.99998323504361508185
 21
-60.62174599431763510893
  0
LINE
  8
Mountain
 62
1
 10
20.9794578594554117501
 20
-75.62325405539749567652
 11
12.31943978235185355175
 21
-70.62284267186407760164
  0
LINE
  8
Mountain
 62
1
 10
3.653974355866195899978
 20
-30.98108243714715115402
 11
-5.005995451614767333126
 21
-25.98058979305879034882
  0
LINE
  8
Mountain
 62
1
 10
-5.005995451614767333126
 20
-25.98058979305879034882
 11
-10.00476910795179108504
 21
-34.64155006042203410743
  0
LINE
  8
Mountain
 62
1
 10
40.97360801759421633506
 20
-40.97888412496106980143
 11
32.31358943981445719373
 21
-35.97847290909508899404
  0
LINE
  8
Mountain
 62
1
 10
32.31358943981445719373
 20
-35.97847290909508899404
 11
27.31490989255792456447
 21
-44.63948911480503056737
  0
LINE
  8
Mountain
 62
1
 10
-21.3401094732592184755
 20
-74.28408570781186881504
 11
-16.34072745430581363735
 21
-65.62347475551581510445
  0
LINE
  8
Mountain
 62
1
 10
15.98078582719152862524
 20
-84.28427492217447536405
 11
20.9794578594554117501
 21
-75.62325405539749567652
  0
LINE
  8
Valley
 62
5
 10
8.655113953631406786826
 20
-39.64055075897059055023
 11
-1.34488611064377350246
 21
-39.6419945754038707264
  0
LINE
  8
Mountain
 62
1
 10
3.656374779824483667312
 20
-48.30152161069172223051
 11
8.655113953631406786826
 21
-39.64055075897059055023
  0
LINE
  8
Valley
 62
5
 10
45.97543482522974045423
 20
-49.638648181458414399
 11
35.9754352044910206132
 21
-49.64019263351523392203
  0
LINE
  8
Mountain
 62
1
 10
40.97678245801841256934
 20
-58.29966895821981864856
 11
45.97543482522974045423
 21
-49.638648181458414399
  0
LINE
  8
Mountain
 62
1
 10
23.65137256214855199232
 20
-13.65764319308959606758
 11
28.65011377766693811964
 21
-4.996673454924894564044
  0
LINE
  8
Mountain
 62
1
 10
60.97143114793296092557
 20
-23.65558516303388358892
 11
65.97017535985634140161
 21
-14.99461614193737268863
  0
LINE
  8
Valley
 62
5
 10
3.656374779824483667312
 20
-48.30152161069172223051
 11
-1.34488611064377350246
 21
-39.6419945754038707264
  0
LINE
  8
Valley
 62
5
 10
40.97678245801841256934
 20
-58.29966895821981864856
 11
35.9754352044910206132
 21
-49.64019263351523392203
  0
LINE
  8
Valley
 62
5
 10
23.65137256214855199232
 20
-13.65764319308959606758
 11
18.65011435459178557039
 21
-4.998113951976444369052
  0
LINE
  8
Valley
 62
5
 10
60.97143114793296092557
 20
-23.65558516303388358892
 11
55.97017642996243580455
 21
-14.99605509807125969246
  0
LINE
  8
Valley
 62
5
 10
3.656374779824483667312
 20
-48.30152161069172223051
 11
-6.343625046297633574
 21
-48.30296592524628351839
  0
LINE
  8
Mountain
 62
1
 10
-1.342383497336204545292
 20
-56.96249336378208738552
 11
3.656374779824483667312
 21
-48.30152161069172223051
  0
LINE
  8
Valley
 62
5
 10
40.97678245801841256934
 20
-58.29966895821981864856
 11
30.9767824109454394943
 21
-58.30121285514709228437
  0
LINE
  8
Mountain
 62
1
 10
35.97811070671690458767
 20
-66.96068913376916498237
 11
40.97678245801841256934
 21
-58.29966895821981864856
  0
LINE
  8
Valley
 62
5
 10
23.65137256214855199232
 20
-13.65764319308959606758
 11
13.65137326194599154405
 21
-13.65908314992423555623
  0
LINE
  8
Mountain
 62
1
 10
18.65261325413899129444
 20
-22.31861192573060748146
 11
23.65137256214855199232
 21
-13.65764319308959606758
  0
LINE
  8
Valley
 62
5
 10
60.97143114793296092557
 20
-23.65558516303388358892
 11
50.97143042961634051835
 21
-23.65713206646736921357
  0
LINE
  8
Mountain
 62
1
 10
55.97275987613129899501
 20
-32.31660785167189686717
 11
60.97143114793296092557
 21
-23.65558516303388358892
  0
LINE
  8
Mountain
 62
1
 10
-1.342383497336204545292
 20
-56.96249336378208738552
 11
-11.34238339490571867429
 21
-56.96393866199575484188
  0
LINE
  8
Valley
 62
5
 10
-6.341122281177589137258
 20
-65.62346452249190065231
 11
-1.342383497336204545292
 21
-56.96249336378208738552
  0
LINE
  8
Mountain
 62
1
 10
35.97811070671690458767
 20
-66.96068913376916498237
 11
25.97811061852647185333
 21
-66.96223295913915762867
  0
LINE
  8
Valley
 62
5
 10
30.97945809876288691953
 20
-75.6217093702928195853
 11
35.97811070671690458767
 21
-66.96068913376916498237
  0
LINE
  8
Mountain
 62
1
 10
18.65261325413899129444
 20
-22.31861192573060748146
 11
8.652614707020291007211
 21
-22.32005473570674780603
  0
LINE
  8
Valley
 62
5
 10
13.65387218484205611446
 20
-30.97958186260255786237
 11
18.65261325413899129444
 21
-22.31861192573060748146
  0
LINE
  8
Mountain
 62
1
 10
55.97275987613129899501
 20
-32.31660785167189686717
 11
45.97276099832046725169
 21
-32.31815151782419803794
  0
LINE
  8
Valley
 62
5
 10
50.97410551375909903982
 20
-40.9776272417126676828
 11
55.97275987613129899501
 21
-32.31660785167189686717
  0
LINE
  8
Mountain
 62
1
 10
-6.340727235279752349584
 20
-65.62275197978479468475
 11
-11.34136316607373373699
 21
-56.96286507844810387269
  0
LINE
  8
Mountain
 62
1
 10
30.97945809876288691953
 20
-75.6217093702928195853
 11
25.97811061852647185333
 21
-66.96223295913915762867
  0
LINE
  8
Mountain
 62
1
 10
13.65387218484205611446
 20
-30.97958186260255786237
 11
8.652614707020291007211
 21
-22.32005473570674780603
  0
LINE
  8
Mountain
 62
1
 10
50.97410551375909903982
 20
-40.9776272417126676828
 11
45.97276099832046725169
 21
-32.31815151782419803794
  0
LINE
  8
Mountain
 62
1
 10
-6.340727235279752349584
 20
-65.62275197978479468475
 11
-16.34072745430581363735
 21
-65.62347475551581510445
  0
LINE
  8
Valley
 62
5
 10
-11.34010985350335687372
 20
-74.28336132401520330859
 11
-6.340727235279752349584
 21
-65.62275197978479468475
  0
LINE
  8
Mountain
 62
1
 10
30.97945809876288691953
 20
-75.6217093702928195853
 11
20.9794578594554117501
 21
-75.62325405539749567652
  0
LINE
  8
Valley
 62
5
 10
25.98078517540215770509
 20
-84.28273108853130679563
 11
30.97945809876288691953
 21
-75.6217093702928195853
  0
LINE
  8
Mountain
 62
1
 10
13.65387218484205611446
 20
-30.97958186260255786237
 11
3.653872708121354229149
 21
-30.98102376974227922801
  0
LINE
  8
Mountain
 62
1
 10
3.653872708121354229149
 20
-30.98102376974227922801
 11
-1.34488611064377350246
 21
-39.6419945754038707264
  0
LINE
  8
Mountain
 62
1
 10
50.97410551375909903982
 20
-40.9776272417126676828
 11
40.97410633630321541432
 21
-40.97917169698578732095
  0
LINE
  8
Mountain
 62
1
 10
40.97410633630321541432
 20
-40.97917169698578732095
 11
35.9754352044910206132
 21
-49.64019263351523392203
  0
LINE
  8
Mountain
 62
1
 10
3.656985730329895822877
 20
-48.30187425503605425092
 11
12.31660804592955393844
 21
-53.30298606243673020799
  0
LINE
  8
Valley
 62
5
 10
12.31660804592955393844
 20
-53.30298606243673020799
 11
17.31605833883909184578
 21
-44.64242585391559714481
  0
LINE
  8
Valley
 62
5
 10
54.63495802370980669593
 20
-54.63877153290493282611
 11
45.97493033160149167315
 21
-49.63835704543248539267
  0
LINE
  8
Mountain
 62
1
 10
23.65137256214855199232
 20
-13.65764319308959606758
 11
32.31140257201880672255
 21
-18.65805040589285113128
  0
LINE
  8
Valley
 62
5
 10
32.31140257201880672255
 20
-18.65805040589285113128
 11
37.31014667033004883478
 21
-9.997082717936134343972
  0
LINE
  8
Mountain
 62
1
 10
49.63620877476358828062
 20
-63.29973630908003201512
 11
40.97618123128901146401
 21
-58.29932199258735181502
  0
LINE
  8
Mountain
 62
1
 10
69.63146221401881064139
 20
-28.65599363280901457074
 11
60.97143114793296092557
 21
-23.65558516303388358892
  0
LINE
  8
Mountain
 62
1
 10
-1.342383497336204545292
 20
-56.96249336378208738552
 11
7.317234675788522046957
 21
-61.96360168959746772543
  0
LINE
  8
Mountain
 62
1
 10
7.317234675788522046957
 20
-61.96360168959746772543
 11
12.31660804592955393844
 21
-53.30298606243673020799
  0
LINE
  8
Mountain
 62
1
 10
18.65455325906125594315
 20
-22.3197317129463499441
 11
27.3141710391509064948
 21
-27.32084000627698117114
  0
LINE
  8
Mountain
 62
1
 10
27.3141710391509064948
 20
-27.32084000627698117114
 11
32.31354551154591803197
 21
-18.66022458734001787661
  0
LINE
  8
Valley
 62
5
 10
-6.340727235279752349584
 20
-65.62275197978479468475
 11
2.318887278753700265099
 21
-70.62386116747087783097
  0
LINE
  8
Mountain
 62
1
 10
2.318887278753700265099
 20
-70.62386116747087783097
 11
7.317630770066656964445
 21
-61.96289305937594349416
  0
LINE
  8
Mountain
 62
1
 10
44.63752144923419251654
 20
-71.96074602616599236171
 11
35.97750193789219963492
 21
-66.96033781524340611213
  0
LINE
  8
Valley
 62
5
 10
13.65581420701555614983
 20
-30.98070281408904236287
 11
22.31543053553638245035
 21
-35.98180945440041966776
  0
LINE
  8
Mountain
 62
1
 10
22.31543053553638245035
 20
-35.98180945440041966776
 11
27.3141710391509064948
 21
-27.32084000627698117114
  0
LINE
  8
Mountain
 62
1
 10
64.63166416471133857158
 20
-37.31637013547522485624
 11
55.97164363931296549026
 21
-32.31596368066172431099
  0
LINE
  8
Valley
 62
5
 10
39.63947658073664115363
 20
-80.62211918594698545348
 11
30.97945809876288691953
 21
-75.6217093702928195853
  0
LINE
  8
Valley
 62
5
 10
13.65581420701555614983
 20
-30.98070281408904236287
 11
8.656434784256816783454
 21
-39.64131315431606594757
  0
LINE
  8
Valley
 62
5
 10
59.63362113189079849462
 20
-45.97774541470604958704
 11
50.97360160955272334604
 21
-40.9773364458690423362
  0
LINE
  8
Valley
 62
5
 10
50.97360160955272334604
 20
-40.9773364458690423362
 11
45.97493033160149167315
 21
-49.63835704543248539267
  0
LINE
  8
Valley
 62
5
 10
-2.679240117173359969627
 20
-79.28539219347437949637
 11
2.319439565921757484546
 21
-70.62437601382301011199
  0
LINE
  8
Valley
 62
5
 10
8.656434784256816783454
 20
-39.64131315431606594757
 11
17.31605833883909184578
 21
-44.64242585391559714481
  0
POLYLINE
  8
Outline
 70
1
 62
3
 10
0
 20
0
  0
VERTEX
 10
9.989713622612740095974
 20
0.002628870880712064206364
  0
VERTEX
 10
0
 20
0
  0
VERTEX
 10
-4.999988865775925717116
 20
-8.660249334325367698284
  0
VERTEX
 10
-9.999996040389460105757
 20
-17.3204995439607642993
  0
VERTEX
 10
-14.99998745811106459769
 20
-25.98074848036326045531
  0
VERTEX
 10
-19.99999465444191315555
 20
-34.64099806557208438562
  0
VERTEX
 10
-24.99998305826353828252
 20
-43.30124779980817351088
  0
VERTEX
 10
-29.99999155273889783757
 20
-51.96149636905272473086
  0
VERTEX
 10
-34.9999833401222701923
 20
-60.62174479798628823346
  0
VERTEX
 10
-39.99999145422560786756
 20
-69.28199450561396588455
  0
VERTEX
 10
-29.99999148877406085489
 20
-69.28199311548873140509
  0
VERTEX
 10
-21.3401094732592184755
 20
-74.28408570781186881504
  0
VERTEX
 10
-11.34010985350335687372
 20
-74.28336132401520330859
  0
VERTEX
 10
-2.679240117173359969627
 20
-79.28539219347437949637
  0
VERTEX
 10
7.320759501901352273023
 20
-79.28385801433027779694
  0
VERTEX
 10
15.98078582719152862524
 20
-84.28427492217447536405
  0
VERTEX
 10
25.98078517540215770509
 20
-84.28273108853130679563
  0
VERTEX
 10
34.64081328801849934962
 20
-89.28314484876219125908
  0
VERTEX
 10
39.63947658073664115363
 20
-80.62211918594698545348
  0
VERTEX
 10
44.63752144923419251654
 20
-71.96074602616599236171
  0
VERTEX
 10
49.63620877476358828062
 20
-63.29973630908003201512
  0
VERTEX
 10
54.63495802370980669593
 20
-54.63877153290493282611
  0
VERTEX
 10
59.63362113189079849462
 20
-45.97774541470604958704
  0
VERTEX
 10
64.63166416471133857158
 20
-37.31637013547522485624
  0
VERTEX
 10
69.63034841630157245618
 20
-28.65535856273058712418
  0
VERTEX
 10
74.63020573437029270281
 20
-19.99502647666994192832
  0
VERTEX
 10
65.97017535985634140161
 20
-14.99461614193737268863
  0
VERTEX
 10
55.97017642996243580455
 20
-14.99605509807125969246
  0
VERTEX
 10
47.31014698529722295461
 20
-9.995643647024134992307
  0
VERTEX
 10
37.31014667033004883478
 20
-9.997082717936134343972
  0
VERTEX
 10
28.65011377766693811964
 20
-4.996673454924894564044
  0
VERTEX
 10
18.65011435459178557039
 20
-4.998113951976444369052
  0
SEQEND
  0
ENDSEC
  0
EOF
