  0
SECTION
  2
HEADER
  9
$ACADVER
  1
AC1006
  0
ENDSEC
  0
SECTION
  2
TABLES
  0
TABLE
  2
LAYER
 70
5
  0
LAYER
  2
Crease
 62
0
  0
LAYER
  2
Outline
 62
3
  0
LAYER
  2
Mountain
 62
1
  0
LAYER
  2
Valley
 62
5
  0
LAYER
  2
Triangulation
 62
7
  0
ENDTAB
  0
ENDSEC
  0
SECTION
  2
ENTITIES
  0
LINE
  8
Valley
 62
5
 10
-13.93177942825765747159
 20
-22.0424002886703185311
 11
-9.999602185630447337417
 21
-17.63368412309780097758
  0
LINE
  8
Valley
 62
5
 10
8.702337524125805856556
 20
-41.86634560278665162514
 11
12.63407758797654878435
 21
-37.45735143926322052721
  0
LINE
  8
Valley
 62
5
 10
6.067666941850560213823
 20
-4.408336199866003113357
 11
10.00004722315976302127
 21
0
  0
LINE
  8
Valley
 62
5
 10
28.69997746315846853804
 20
-24.23226495158257876028
 11
32.63120262472289567768
 21
-19.82300304783604616432
  0
LINE
  8
Valley
 62
5
 10
-13.93177942825765747159
 20
-22.0424002886703185311
 11
-19.99962439691361026917
 21
-17.63415426855939927009
  0
LINE
  8
Mountain
 62
1
 10
-23.93184401330923805062
 20
-22.04271480926107429354
 11
-13.93177942825765747159
 21
-22.0424002886703185311
  0
LINE
  8
Valley
 62
5
 10
8.702337524125805856556
 20
-41.86634560278665162514
 11
2.634054413739796984828
 21
-37.45879752715408983477
  0
LINE
  8
Mountain
 62
1
 10
-1.297772768262347220514
 20
-41.86756095775662345204
 11
8.702337524125805856556
 21
-41.86634560278665162514
  0
LINE
  8
Valley
 62
5
 10
6.067666941850560213823
 20
-4.408336199866003113357
 11
0
 21
0
  0
LINE
  8
Mountain
 62
1
 10
-3.93227322890969555047
 20
-4.408353564391177314974
 11
6.067666941850560213823
 21
-4.408336199866003113357
  0
LINE
  8
Valley
 62
5
 10
28.69994884091888565081
 20
-24.23019249368445215964
 11
22.63181447106564192495
 21
-19.82236434682117476314
  0
LINE
  8
Mountain
 62
1
 10
18.69994502318260387597
 20
-24.2312718595529617005
 11
28.69994884091888565081
 21
-24.23019249368445215964
  0
LINE
  8
Valley
 62
5
 10
-19.99923935393721308174
 20
-26.45098539789307068304
 11
-13.93177942825765747159
 21
-22.0424002886703185311
  0
LINE
  8
Valley
 62
5
 10
2.63517449166513095804
 20
-46.27551105887289395469
 11
8.702337524125805856556
 21
-41.86634560278665162514
  0
LINE
  8
Valley
 62
5
 10
0.0001436392112030837608927
 20
-8.816834674252715942089
 11
6.067666941850560213823
 21
-4.408336199866003113357
  0
LINE
  8
Valley
 62
5
 10
22.63289429885736936399
 20
-28.63907061600301773296
 11
28.69994884091888565081
 21
-24.23019249368445215964
  0
LINE
  8
Mountain
 62
1
 10
-23.93139802504024871155
 20
-30.85950302072166806511
 11
-19.99923935393721308174
 21
-26.45098539789307068304
  0
LINE
  8
Valley
 62
5
 10
-19.99923935393721308174
 20
-26.45098539789307068304
 11
-29.99923489065082193861
 21
-26.45137716990172549458
  0
LINE
  8
Mountain
 62
1
 10
-1.296868804268811681268
 20
-50.68429452829253989421
 11
2.63517449166513095804
 21
-46.27551105887289395469
  0
LINE
  8
Valley
 62
5
 10
2.63517449166513095804
 20
-46.27551105887289395469
 11
-7.364984102789833286806
 21
-46.27679273242330282301
  0
LINE
  8
Mountain
 62
1
 10
-3.932215160354582739188
 20
-13.2252399417863006903
 11
0.0001436392112030837608927
 21
-8.816834674252715942089
  0
LINE
  8
Valley
 62
5
 10
0.0001436392112030837608927
 20
-8.816834674252715942089
 11
-9.999901248028045586125
 21
-8.816964072799594376306
  0
LINE
  8
Mountain
 62
1
 10
18.70123555135628379276
 20
-33.04797910398183091729
 11
22.63289429885736936399
 21
-28.63907061600301773296
  0
LINE
  8
Valley
 62
5
 10
22.63289429885736936399
 20
-28.63907061600301773296
 11
12.63281203482411285677
 21
-28.64039720700887059479
  0
LINE
  8
Mountain
 62
1
 10
-23.93139802504024871155
 20
-30.85950302072166806511
 11
-29.99923489065082193861
 21
-26.45137716990172549458
  0
LINE
  8
Valley
 62
5
 10
-33.93162468418625365985
 20
-30.85982624205205482326
 11
-23.93139802504024871155
 21
-30.85950302072166806511
  0
LINE
  8
Mountain
 62
1
 10
-1.296868804268811681268
 20
-50.68429452829253989421
 11
-7.364984102789833286806
 21
-46.27679273242330282301
  0
LINE
  8
Valley
 62
5
 10
-11.29716179941972242773
 20
-50.68558196794592163315
 11
-1.296868804268811681268
 21
-50.68429452829253989421
  0
LINE
  8
Mountain
 62
1
 10
-3.932215160354582739188
 20
-13.2252399417863006903
 11
-9.999901248028045586125
 21
-8.816964072799594376306
  0
LINE
  8
Valley
 62
5
 10
-13.93223979334766760019
 20
-13.22535407662067008516
 11
-3.932215160354582739188
 21
-13.2252399417863006903
  0
LINE
  8
Mountain
 62
1
 10
18.70123555135628379276
 20
-33.04797910398183091729
 11
12.63281203482411285677
 21
-28.64039720700887059479
  0
LINE
  8
Valley
 62
5
 10
8.701007851931757741681
 20
-33.04951154584232142497
 11
18.70123555135628379276
 21
-33.04797910398183091729
  0
LINE
  8
Mountain
 62
1
 10
-29.99891550507611981402
 20
-35.26796245703168608543
 11
-23.93139802504024871155
 21
-30.85950302072166806511
  0
LINE
  8
Mountain
 62
1
 10
-7.363967452964117477165
 20
-55.09324158139314420168
 11
-1.296868804268811681268
 21
-50.68429452829253989421
  0
LINE
  8
Mountain
 62
1
 10
-19.99962439691361026917
 20
-17.63415426855939927009
 11
-9.999602185630447337417
 21
-17.63368412309780097758
  0
LINE
  8
Valley
 62
5
 10
8.701007851931757741681
 20
-33.04951154584232142497
 11
2.634054413739796984828
 21
-37.45879752715408983477
  0
LINE
  8
Mountain
 62
1
 10
2.634054413739796984828
 20
-37.45879752715408983477
 11
12.63407758797654878435
 21
-37.45735143926322052721
  0
LINE
  8
Mountain
 62
1
 10
-12.61526829291343787531
 20
-31.95626145568686382603
 11
-8.683315932578809182019
 21
-27.54771806280283286128
  0
LINE
  8
Mountain
 62
1
 10
-8.683315932578809182019
 20
-27.54771806280283286128
 11
-10.00074315325759677364
 21
-17.6348185637755641153
  0
LINE
  8
Mountain
 62
1
 10
10.02259087225368539009
 20
-51.78312229247264752985
 11
13.95403820953052509424
 21
-47.373965455020737636
  0
LINE
  8
Mountain
 62
1
 10
13.95403820953052509424
 20
-47.373965455020737636
 11
12.63567594045744080233
 21
-37.46144483439449857087
  0
LINE
  8
Mountain
 62
1
 10
7.382298415740478958469
 20
-14.31970242194315190432
 11
11.31397643267145980417
 21
-9.910892459503457985193
  0
LINE
  8
Mountain
 62
1
 10
30.01847596999263600992
 20
-34.14494414769161778622
 11
33.95003872053585780577
 21
-29.73583334502762909324
  0
LINE
  8
Valley
 62
5
 10
-12.61526829291343787531
 20
-31.95626145568686382603
 11
-13.9327689804355561165
 21
-22.04366977360577095624
  0
LINE
  8
Valley
 62
5
 10
10.02259087225368539009
 20
-51.78312229247264752985
 11
8.704056984415629472096
 21
-41.87054699335674001759
  0
LINE
  8
Valley
 62
5
 10
7.382298415740478958469
 20
-14.31970242194315190432
 11
6.064554637095607603214
 21
-4.406977746699244136153
  0
LINE
  8
Valley
 62
5
 10
30.01847596999263600992
 20
-34.14494414769161778622
 11
28.69997746315846853804
 21
-24.23226495158257876028
  0
LINE
  8
Valley
 62
5
 10
-18.68182799116694070563
 20
-36.36589603048991392598
 11
-12.61526829291343787531
 21
-31.95626145568686382603
  0
LINE
  8
Valley
 62
5
 10
3.956275870936822869339
 20
-56.19347712654656135101
 11
10.02259087225368539009
 21
-51.78312229247264752985
  0
LINE
  8
Valley
 62
5
 10
1.31516853538410183333
 20
-18.72906712735142420456
 11
7.382298415740478958469
 21
-14.31970242194315190432
  0
LINE
  8
Valley
 62
5
 10
23.95176551736654246838
 20
-38.55469857878934192286
 11
30.01847596999263600992
 21
-34.14494414769161778622
  0
LINE
  8
Valley
 62
5
 10
-22.61545943956696547161
 20
-40.7725301651231006872
 11
-18.68303372732136580225
 21
-36.36414689817637224678
  0
LINE
  8
Valley
 62
5
 10
-18.68182799116694070563
 20
-36.36589603048991392598
 11
-19.99972504129236838821
 21
-26.45294826000473875638
  0
LINE
  8
Valley
 62
5
 10
0.01987425705505851958321
 20
-60.59720696006031914749
 11
3.95198914200996531676
 21
-56.18849941288505789316
  0
LINE
  8
Valley
 62
5
 10
3.956275870936822869339
 20
-56.19347712654656135101
 11
2.637584722245395862927
 21
-46.28066281654333380402
  0
LINE
  8
Valley
 62
5
 10
-2.616534489490803139233
 20
-23.13818004080345858142
 11
1.31516853538410183333
 21
-18.72906712735142420456
  0
LINE
  8
Valley
 62
5
 10
1.31516853538410183333
 20
-18.72906712735142420456
 11
-0.002258611819623279615143
 21
-8.816453319772326935322
  0
LINE
  8
Valley
 62
5
 10
20.02030326749081012849
 20
-42.96397550865326309122
 11
23.95176551736654246838
 21
-38.55469857878934192286
  0
LINE
  8
Valley
 62
5
 10
23.95176551736654246838
 20
-38.55469857878934192286
 11
22.63355963090457834141
 21
-28.64201911687575830001
  0
LINE
  8
Mountain
 62
1
 10
-22.61545943956696547161
 20
-40.7725301651231006872
 11
-23.93139802504024871155
 21
-30.85950302072166806511
  0
LINE
  8
Mountain
 62
1
 10
0.01987425705505851958321
 20
-60.59720696006031914749
 11
-1.296868804268811681268
 21
-50.68429452829253989421
  0
LINE
  8
Mountain
 62
1
 10
-3.934163420170655456332
 20
-13.22526351180898984694
 11
-10.00074315325759677364
 21
-17.6348185637755641153
  0
LINE
  8
Mountain
 62
1
 10
-2.616534489490803139233
 20
-23.13818004080345858142
 11
-3.934163420170655456332
 21
-13.22526351180898984694
  0
LINE
  8
Mountain
 62
1
 10
18.70218744762196294573
 20
-33.05118313272787133883
 11
12.63567594045744080233
 21
-37.46144483439449857087
  0
LINE
  8
Mountain
 62
1
 10
20.02030326749081012849
 20
-42.96397550865326309122
 11
18.70218744762196294573
 21
-33.05118313272787133883
  0
LINE
  8
Mountain
 62
1
 10
-28.68142733364934926499
 20
-45.18371019208149874657
 11
-22.61462941433456208529
 21
-40.77457664328463238235
  0
LINE
  8
Mountain
 62
1
 10
-6.047564408928393753229
 20
-65.00602280088527606949
 11
0.01987425705505851958321
 21
-60.59720696006031914749
  0
LINE
  8
Mountain
 62
1
 10
-2.615900562132270401605
 20
-31.95459369450881226271
 11
1.316075202926237253109
 21
-27.54563081750049491347
  0
LINE
  8
Valley
 62
5
 10
1.316075202926237253109
 20
-27.54563081750049491347
 11
-8.68403812198820901358
 21
-27.54679240104440651749
  0
LINE
  8
Mountain
 62
1
 10
20.01961210234901500371
 20
-51.77946232201345111434
 11
23.95178061499089139375
 21
-47.37077306444022184451
  0
LINE
  8
Valley
 62
5
 10
23.95178061499089139375
 20
-47.37077306444022184451
 11
13.95183931049450976047
 21
-47.37124860950338955945
  0
LINE
  8
Mountain
 62
1
 10
17.38226144991209309865
 20
-14.31827482792823147406
 11
21.31403844831883276356
 21
-9.909364023648448593917
  0
LINE
  8
Mountain
 62
1
 10
40.0179104361282611535
 20
-34.1438594395122692049
 11
43.95057925466056758523
 21
-29.7356095647278806382
  0
LINE
  8
Mountain
 62
1
 10
-2.615900562132270401605
 20
-31.95459369450881226271
 11
-8.68403812198820901358
 21
-27.54679240104440651749
  0
LINE
  8
Mountain
 62
1
 10
20.01961210234901500371
 20
-51.77946232201345111434
 11
13.95183931049450976047
 21
-47.37124860950338955945
  0
LINE
  8
Mountain
 62
1
 10
17.38226144991209309865
 20
-14.31827482792823147406
 11
11.31397643267145980417
 21
-9.910892459503457985193
  0
LINE
  8
Mountain
 62
1
 10
40.0179104361282611535
 20
-34.1438594395122692049
 11
33.95003872053585780577
 21
-29.73583334502762909324
  0
LINE
  8
Mountain
 62
1
 10
-8.683080949983924767821
 20
-36.36352959345705926353
 11
-2.615900562132270401605
 21
-31.95459369450881226271
  0
LINE
  8
Valley
 62
5
 10
-2.615900562132270401605
 20
-31.95459369450881226271
 11
-12.61566395307935728454
 21
-31.95562700161396207932
  0
LINE
  8
Mountain
 62
1
 10
13.95212930467896583764
 20
-56.18799108318668089623
 11
20.01961210234901500371
 21
-51.77946232201345111434
  0
LINE
  8
Valley
 62
5
 10
20.01961210234901500371
 20
-51.77946232201345111434
 11
10.01982475072711409325
 21
-51.77989961460770729218
  0
LINE
  8
Mountain
 62
1
 10
11.31499525999218391803
 20
-18.72759799510683365042
 11
17.38226144991209309865
 21
-14.31827482792823147406
  0
LINE
  8
Valley
 62
5
 10
17.38226144991209309865
 20
-14.31827482792823147406
 11
7.382298415740478958469
 21
-14.31970242194315190432
  0
LINE
  8
Mountain
 62
1
 10
33.95090049329302672732
 20
-38.55294414425538462865
 11
40.0179104361282611535
 21
-34.1438594395122692049
  0
LINE
  8
Valley
 62
5
 10
40.0179104361282611535
 20
-34.1438594395122692049
 11
30.01847596999263600992
 21
-34.14494414769161778622
  0
LINE
  8
Valley
 62
5
 10
-12.61538699545816655245
 20
-40.77200607229649875762
 11
-8.683080949983924767821
 21
-36.36352959345705926353
  0
LINE
  8
Mountain
 62
1
 10
-8.683080949983924767821
 20
-36.36352959345705926353
 11
-18.68303372732136580225
 21
-36.36414689817637224678
  0
LINE
  8
Valley
 62
5
 10
10.01987367918999538574
 20
-60.59656569081742105709
 11
13.95212930467896583764
 21
-56.18799108318668089623
  0
LINE
  8
Mountain
 62
1
 10
13.95212930467896583764
 20
-56.18799108318668089623
 11
3.952111656581094756291
 21
-56.18833077146725685225
  0
LINE
  8
Valley
 62
5
 10
7.383355465153024432823
 20
-23.1365651905494331686
 11
11.31499525999218391803
 21
-18.72759799510683365042
  0
LINE
  8
Mountain
 62
1
 10
11.31499525999218391803
 20
-18.72759799510683365042
 11
1.315019259943859264439
 21
-18.72886172231428147938
  0
LINE
  8
Valley
 62
5
 10
30.01922331199247651057
 20
-42.96199601124347111636
 11
33.95090049329302672732
 21
-38.55294414425538462865
  0
LINE
  8
Mountain
 62
1
 10
33.95090049329302672732
 20
-38.55294414425538462865
 11
23.9512673307290171465
 21
-38.55401311814713238846
  0
LINE
  8
Valley
 62
5
 10
-12.61538699545816655245
 20
-40.77200607229649875762
 11
-18.68303372732136580225
 21
-36.36414689817637224678
  0
LINE
  8
Valley
 62
5
 10
10.01987367918999538574
 20
-60.59656569081742105709
 11
3.95198914200996531676
 21
-56.18849941288505789316
  0
LINE
  8
Valley
 62
5
 10
7.383355465153024432823
 20
-23.1365651905494331686
 11
1.315019259943859264439
 21
-18.72886172231428147938
  0
LINE
  8
Valley
 62
5
 10
30.01922331199247651057
 20
-42.96199601124347111636
 11
23.9512673307290171465
 21
-38.55401311814713238846
  0
LINE
  8
Valley
 62
5
 10
-18.68135202861547483622
 20
-45.18214769171036238049
 11
-12.61455717826524569602
 21
-40.77247058225012921184
  0
LINE
  8
Mountain
 62
1
 10
-12.61455717826524569602
 20
-40.77247058225012921184
 11
-22.61462941433456208529
 21
-40.77457664328463238235
  0
LINE
  8
Valley
 62
5
 10
3.952497241968700780745
 20
-65.0053393307994724637
 11
10.01987367918999538574
 21
-60.59656569081742105709
  0
LINE
  8
Mountain
 62
1
 10
10.01987367918999538574
 20
-60.59656569081742105709
 11
0.01987425705505851958321
 21
-60.59720696006031914749
  0
LINE
  8
Mountain
 62
1
 10
-2.616824315218852614606
 20
-23.13784929995970429673
 11
-8.68403812198820901358
 21
-27.54679240104440651749
  0
LINE
  8
Mountain
 62
1
 10
7.383355465153024432823
 20
-23.1365651905494331686
 11
-2.616824315218852614606
 21
-23.13784929995970429673
  0
LINE
  8
Mountain
 62
1
 10
20.0191675556094352828
 20
-42.96272152593876825222
 11
13.95183931049450976047
 21
-47.37124860950338955945
  0
LINE
  8
Mountain
 62
1
 10
30.01922331199247651057
 20
-42.96199601124347111636
 11
20.0191675556094352828
 21
-42.96272152593876825222
  0
LINE
  8
Mountain
 62
1
 10
-2.615710235980093223418
 20
-31.95431932471229075077
 11
-1.298281107726533711855
 21
-41.8670198226592091828
  0
LINE
  8
Valley
 62
5
 10
-1.298281107726533711855
 20
-41.8670198226592091828
 11
2.633669021676922294972
 21
-37.45836604219138621374
  0
LINE
  8
Valley
 62
5
 10
25.26664927790597658941
 20
-57.28199225616949519235
 11
23.95020242824529432824
 21
-47.36901174239036294011
  0
LINE
  8
Mountain
 62
1
 10
17.38226144991209309865
 20
-14.31827482792823147406
 11
18.69994502318260387597
 21
-24.2312718595529617005
  0
LINE
  8
Valley
 62
5
 10
18.69994502318260387597
 20
-24.2312718595529617005
 11
22.63181447106564192495
 21
-19.82236434682117476314
  0
LINE
  8
Mountain
 62
1
 10
21.33407236043336041575
 20
-61.69038598765448710992
 11
20.017779195549955773
 21
-51.77747379855143350369
  0
LINE
  8
Mountain
 62
1
 10
41.33380239351772900136
 20
-44.05672598061446620932
 11
40.0179104361282611535
 21
-34.1438594395122692049
  0
LINE
  8
Mountain
 62
1
 10
-7.365311122647833386168
 20
-46.27650108677555351733
 11
-1.298281107726533711855
 21
-41.8670198226592091828
  0
LINE
  8
Mountain
 62
1
 10
-8.682542532577771865476
 20
-36.36373419572699816626
 11
-7.365311122647833386168
 21
-46.27650108677555351733
  0
LINE
  8
Mountain
 62
1
 10
12.63248438244670168729
 20
-28.63998687794438424703
 11
18.69963752736984829994
 21
-24.23088926686168065316
  0
LINE
  8
Mountain
 62
1
 10
11.31527675522637643724
 20
-18.72726344468733827853
 11
12.63248438244670168729
 21
-28.63998687794438424703
  0
LINE
  8
Valley
 62
5
 10
-12.61455717826524569602
 20
-40.77247058225012921184
 11
-11.29716179941972242773
 21
-50.68558196794592163315
  0
LINE
  8
Mountain
 62
1
 10
-11.29716179941972242773
 20
-50.68558196794592163315
 11
-7.365311122647833386168
 21
-46.27650108677555351733
  0
LINE
  8
Mountain
 62
1
 10
15.26880921094292453688
 20
-66.10082333424333000949
 11
13.95212930467896583764
 21
-56.18799108318668089623
  0
LINE
  8
Valley
 62
5
 10
7.383443167941556417588
 20
-23.13605782056277249126
 11
8.700559805771707289068
 21
-33.04899385331376038266
  0
LINE
  8
Mountain
 62
1
 10
8.700559805771707289068
 20
-33.04899385331376038266
 11
12.63248438244670168729
 21
-28.63998687794438424703
  0
LINE
  8
Mountain
 62
1
 10
35.26599807806545072708
 20
-48.46488168976572552538
 11
33.95012347317180001482
 21
-38.55187474713506645685
  0
LINE
  8
Valley
 62
5
 10
11.33631411229118590711
 20
-70.50950783926167275695
 11
10.01987367918999538574
 21
-60.59656569081742105709
  0
LINE
  8
Valley
 62
5
 10
7.383443167941556417588
 20
-23.13605782056277249126
 11
1.316455123395275261799
 21
-27.54552553792964530999
  0
LINE
  8
Valley
 62
5
 10
30.01759838484122511204
 20
-42.96017036487682361212
 11
23.95020242824529432824
 21
-47.36901174239036294011
  0
LINE
  8
Valley
 62
5
 10
31.33390669324619182134
 20
-52.87326639470861522341
 11
30.01759838484122511204
 21
-42.96017036487682361212
  0
LINE
  8
Valley
 62
5
 10
-17.36400666134759873671
 20
-55.09494510377098919207
 11
-11.29716179941972242773
 21
-50.68558196794592163315
  0
LINE
  8
Valley
 62
5
 10
1.316455123395275261799
 20
-27.54552553792964530999
 11
2.633669021676922294972
 21
-37.45836604219138621374
  0
POLYLINE
  8
Outline
 70
1
 62
3
 10
0
 20
0
  0
VERTEX
 10
9.996151376198069371526
 20
0.002057273456227637353777
  0
VERTEX
 10
0
 20
0
  0
VERTEX
 10
-3.93227322890969555047
 20
-4.408353564391177314974
  0
VERTEX
 10
-9.999901248028045586125
 20
-8.816964072799594376306
  0
VERTEX
 10
-13.93223979334766760019
 20
-13.22535407662067008516
  0
VERTEX
 10
-19.99962439691361026917
 20
-17.63415426855939927009
  0
VERTEX
 10
-23.93184401330923805062
 20
-22.04271480926107429354
  0
VERTEX
 10
-29.99923489065082193861
 20
-26.45137716990172549458
  0
VERTEX
 10
-33.93162468418625365985
 20
-30.85982624205205482326
  0
VERTEX
 10
-39.99873857755435579975
 20
-35.26903608287763347562
  0
VERTEX
 10
-29.9987517640922227713
 20
-35.27090275686330045346
  0
VERTEX
 10
-28.68142733364934926499
 20
-45.18371019208149874657
  0
VERTEX
 10
-18.68135202861547483622
 20
-45.18214769171036238049
  0
VERTEX
 10
-17.36400666134759873671
 20
-55.09494510377098919207
  0
VERTEX
 10
-7.363967452964117477165
 20
-55.09324158139314420168
  0
VERTEX
 10
-6.047564408928393753229
 20
-65.00602280088527606949
  0
VERTEX
 10
3.952497241968700780745
 20
-65.0053393307994724637
  0
VERTEX
 10
5.268909773487952641347
 20
-74.91819587285972659174
  0
VERTEX
 10
11.33631411229118590711
 20
-70.50950783926167275695
  0
VERTEX
 10
15.26651999247658864078
 20
-66.09906545550575174275
  0
VERTEX
 10
21.33407236043336041575
 20
-61.69038598765448710992
  0
VERTEX
 10
25.26664927790597658941
 20
-57.28199225616949519235
  0
VERTEX
 10
31.33390669324619182134
 20
-52.87326639470861522341
  0
VERTEX
 10
35.26599807806545072708
 20
-48.46488168976572552538
  0
VERTEX
 10
41.33380239351772900136
 20
-44.05672598061446620932
  0
VERTEX
 10
45.26631966867249445841
 20
-39.64868031872188680609
  0
VERTEX
 10
43.95057925466056758523
 20
-29.7356095647278806382
  0
VERTEX
 10
33.95003872053585780577
 20
-29.73583334502762909324
  0
VERTEX
 10
32.63120262472289567768
 20
-19.82300304783604616432
  0
VERTEX
 10
22.63103402447849532564
 20
-19.82555084229687736297
  0
VERTEX
 10
21.31403844831883276356
 20
-9.909364023648448593917
  0
VERTEX
 10
11.31397643267145980417
 20
-9.910892459503457985193
  0
SEQEND
  0
ENDSEC
  0
EOF
